<svg width="40" height="25" viewBox="0 0 40 25" fill="none" xmlns="http://www.w3.org/2000/svg">
<path d="M8.72766 17.5C8.05597 17.5 7.43078 17.3944 6.8521 17.1833C6.28375 16.9833 5.78773 16.7 5.36405 16.3333C4.94037 15.9778 4.60452 15.55 4.35651 15.05C4.11884 14.5611 4 14.0278 4 13.45C4 13.2389 4.0155 12.9667 4.0465 12.6333C4.0775 12.3 4.11884 11.9167 4.17051 11.4833C4.23251 11.05 4.29968 10.5889 4.37201 10.1L6.41808 10.4C6.31475 11.1 6.23208 11.7222 6.17007 12.2667C6.10807 12.8111 6.07707 13.1944 6.07707 13.4167C6.07707 13.8389 6.18558 14.2111 6.40258 14.5333C6.61959 14.8556 6.92443 15.1056 7.31711 15.2833C7.72013 15.4722 8.19031 15.5667 8.72766 15.5667H13.1143C13.786 15.5667 14.2872 15.3833 14.6179 15.0167C14.9485 14.65 15.1139 14.1167 15.1139 13.4167V12.7833H17.1755V13.4167C17.1755 14.2167 17.0101 14.9222 16.6794 15.5333C16.3488 16.1444 15.8786 16.6222 15.2689 16.9667C14.6695 17.3222 13.9513 17.5 13.1143 17.5H8.72766ZM14.4319 13.3667C13.9565 13.3667 13.4967 13.3111 13.0523 13.2C12.6183 13.0889 12.2049 12.8889 11.8123 12.6L12.9903 11C13.1556 11.1222 13.3003 11.2167 13.4243 11.2833C13.5587 11.3389 13.7033 11.3778 13.8583 11.4C14.0237 11.4222 14.2149 11.4333 14.4319 11.4333H17.8575V13.3667H14.4319ZM17.8575 13.3667V11.4333C17.9711 11.4333 18.0486 11.5222 18.09 11.7C18.1417 11.8667 18.1675 12.1 18.1675 12.4C18.1675 12.6889 18.1417 12.9222 18.09 13.1C18.0486 13.2778 17.9711 13.3667 17.8575 13.3667ZM8.46415 21V19.1H10.5412V21H8.46415ZM10.5877 21V19.1H12.6648V21H10.5877Z" fill="white"/>
<path d="M17.8512 13.3667V11.4333H20.6878L19.4787 12.5167V5H21.5558V13.3667H17.8512ZM17.8512 13.3667C17.7272 13.3667 17.6445 13.2778 17.6032 13.1C17.5618 12.9222 17.5412 12.6889 17.5412 12.4C17.5412 12.1 17.5618 11.8667 17.6032 11.7C17.6445 11.5222 17.7272 11.4333 17.8512 11.4333V13.3667ZM19.4787 16.9167V15.0167H21.5558V16.9167H19.4787Z" fill="white"/>
<path d="M26.2761 13.3667V11.4333H28.2756V13.3667H26.2761ZM23.269 17.5C23.1346 17.5 22.99 17.4944 22.835 17.4833C22.68 17.4722 22.5198 17.4556 22.3544 17.4333L22.4319 15.5333C22.5973 15.5444 22.7523 15.5556 22.897 15.5667C23.052 15.5778 23.1656 15.5833 23.238 15.5833C23.641 15.5833 23.9613 15.4111 24.199 15.0667C24.447 14.7222 24.571 14.2389 24.571 13.6167V5H26.6481V13.6167C26.6481 14.3722 26.5034 15.0444 26.2141 15.6333C25.9351 16.2222 25.5424 16.6778 25.036 17C24.5297 17.3333 23.9407 17.5 23.269 17.5ZM28.2756 13.3667V11.4333C28.3997 11.4333 28.4823 11.5222 28.5237 11.7C28.565 11.8667 28.5857 12.1 28.5857 12.4C28.5857 12.6889 28.565 12.9222 28.5237 13.1C28.4823 13.2778 28.3997 13.3667 28.2756 13.3667Z" fill="white"/>
<path d="M31.1948 13.1C30.6678 12.5667 30.27 12 30.0013 11.4C29.743 10.8 29.6138 10.1611 29.6138 9.48333C29.6138 8.82778 29.7275 8.22778 29.9548 7.68333C30.1821 7.12778 30.4921 6.65 30.8848 6.25C31.2775 5.85 31.7322 5.54444 32.2489 5.33333C32.7759 5.11111 33.3287 5 33.9074 5C34.2174 5 34.5429 5.03333 34.884 5.1C35.225 5.16667 35.5505 5.25556 35.8605 5.36667L35.2405 7.18333C35.0235 7.10556 34.8065 7.04444 34.5895 7C34.3828 6.95556 34.1813 6.93333 33.9849 6.93333C33.5302 6.93333 33.1272 7.04444 32.7759 7.26667C32.4245 7.47778 32.1507 7.77222 31.9544 8.15C31.7684 8.52778 31.6754 8.96111 31.6754 9.45C31.6754 10.3611 32.006 11.1278 32.6674 11.75L31.1948 13.1ZM28.2807 13.3667V11.4333H36V13.3667H28.2807ZM28.2807 13.3667C28.1567 13.3667 28.0741 13.2778 28.0327 13.1C27.9914 12.9222 27.9707 12.6889 27.9707 12.4C27.9707 12.1 27.9914 11.8667 28.0327 11.7C28.0741 11.5222 28.1567 11.4333 28.2807 11.4333V13.3667Z" fill="white"/>
</svg>
