<svg width="42" height="25" viewBox="0 0 42 25" fill="none" xmlns="http://www.w3.org/2000/svg">
<path d="M6.86763 9C8.16756 9 9.14488 9.255 9.79959 9.76501C10.4638 10.2665 10.7959 11.0528 10.7959 12.1238V15.9616C10.7959 16.0466 10.7627 16.1231 10.6963 16.1911C10.6298 16.2506 10.5444 16.2803 10.4401 16.2803H8.74636C8.64199 16.2803 8.55659 16.2506 8.49017 16.1911C8.42375 16.1316 8.39054 16.0551 8.39054 15.9616V12.1875C8.39054 11.2185 7.85444 10.734 6.78223 10.734H5.8571C5.7717 11.023 5.71003 11.312 5.67207 11.601C5.64361 11.89 5.62937 12.2258 5.62937 12.6083L5.74324 15.9616C5.74324 16.0466 5.71003 16.1231 5.64361 16.1911C5.57719 16.2506 5.49179 16.2803 5.38741 16.2803L2.35582 16.2676C2.26094 16.2676 2.17554 16.2378 2.09963 16.1783C2.03321 16.1103 2 16.0338 2 15.9488V14.9416C2 14.8481 2.03321 14.7716 2.09963 14.7121C2.17554 14.6526 2.26094 14.6228 2.35582 14.6228H3.50868V12.621C3.50868 11.907 3.58459 11.278 3.73641 10.734H2.88244C2.78755 10.734 2.70215 10.7043 2.62624 10.6448C2.55982 10.5768 2.52661 10.5003 2.52661 10.4153V9.31875C2.52661 9.22525 2.55982 9.14875 2.62624 9.08925C2.70215 9.02975 2.78755 9 2.88244 9H6.86763Z" fill="white"/>
<path d="M12.7012 13.2585C12.6063 13.2585 12.5209 13.2288 12.445 13.1693C12.3786 13.1013 12.3454 13.0248 12.3454 12.9398V9.31875C12.3454 9.22525 12.3786 9.14875 12.445 9.08925C12.5209 9.02975 12.6063 9 12.7012 9H14.4803C14.5847 9 14.6701 9.02975 14.7365 9.08925C14.8124 9.14875 14.8504 9.22525 14.8504 9.31875V12.9398C14.8504 13.0333 14.8124 13.1098 14.7365 13.1693C14.6701 13.2288 14.5847 13.2585 14.4803 13.2585H12.7012Z" fill="white"/>
<path d="M20.7019 16.2803C20.5976 16.2803 20.5074 16.2506 20.4315 16.1911C20.3651 16.1316 20.3319 16.0551 20.3319 15.9616V12.1875C20.3319 11.2185 19.7958 10.734 18.7236 10.734H16.5602C16.4653 10.734 16.3799 10.7043 16.304 10.6448C16.2376 10.5768 16.2044 10.5003 16.2044 10.4153V9.31875C16.2044 9.22525 16.2376 9.14875 16.304 9.08925C16.3799 9.02975 16.4653 9 16.5602 9H18.809C20.1279 9 21.11 9.24225 21.7552 9.72676C22.4099 10.2113 22.7372 11.006 22.7372 12.111V15.9616C22.7372 16.0466 22.704 16.1231 22.6376 16.1911C22.5712 16.2506 22.4858 16.2803 22.3814 16.2803H20.7019Z" fill="white"/>
<path d="M24.4272 16.2803C24.3323 16.2803 24.2469 16.2506 24.171 16.1911C24.1046 16.1231 24.0713 16.0466 24.0713 15.9616V14.8651C24.0713 14.7716 24.1046 14.6951 24.171 14.6356C24.2469 14.5761 24.3323 14.5463 24.4272 14.5463H27.9996V12.1875C27.9996 11.227 27.4635 10.7468 26.3913 10.7468H24.5695C24.4651 10.7468 24.3797 10.717 24.3133 10.6575C24.2469 10.5895 24.2137 10.5088 24.2137 10.4153V9.31875C24.2137 9.22525 24.2469 9.14875 24.3133 9.08925C24.3892 9.02975 24.4746 9 24.5695 9H26.4625C27.7909 9 28.7919 9.25075 29.4656 9.75226C30.1488 10.2538 30.4904 11.0655 30.4904 12.1875V14.5463H30.9885C31.0929 14.5463 31.1783 14.5761 31.2447 14.6356C31.3111 14.6951 31.3443 14.7716 31.3443 14.8651V15.9616C31.3443 16.0466 31.3111 16.1231 31.2447 16.1911C31.1783 16.2506 31.0929 16.2803 30.9885 16.2803H24.4272Z" fill="white"/>
<path d="M39.6299 9C39.7343 9 39.8197 9.02975 39.8861 9.08925C39.962 9.14875 40 9.22525 40 9.31875V13.0928C40 13.9343 39.6726 14.6356 39.0179 15.1966C38.3632 15.7491 37.4428 16.1188 36.2568 16.3058L32.5989 16.9943C32.4946 17.0113 32.4044 16.9901 32.3285 16.9306C32.2526 16.8711 32.2146 16.7946 32.2146 16.7011V15.5918C32.2146 15.5068 32.2431 15.4346 32.3 15.3751C32.357 15.3071 32.4376 15.2646 32.542 15.2476L34.1218 14.9033L32.4424 9.51001C32.3949 9.3655 32.3712 9.2805 32.3712 9.255C32.3712 9.187 32.3997 9.1275 32.4566 9.0765C32.5135 9.0255 32.5799 9 32.6559 9H34.5204C34.6058 9 34.6769 9.02125 34.7339 9.06375C34.7908 9.09775 34.8287 9.14025 34.8477 9.19125L36.2568 14.4061C36.7691 14.2276 37.1202 13.9896 37.31 13.692C37.4998 13.386 37.5947 12.9738 37.5947 12.4553V9.31875C37.5947 9.22525 37.6279 9.14875 37.6943 9.08925C37.7607 9.02975 37.8461 9 37.9505 9H39.6299Z" fill="white"/>
</svg>
