<svg width="2000" height="78" viewBox="0 0 2000 78" fill="none" xmlns="http://www.w3.org/2000/svg">
<g clip-path="url(#clip0_1256_837)">
<path d="M219.081 39.5768C258.618 46.9224 296.9 60.0887 336.328 68.0742C392.49 79.4569 450.977 80.1445 507.051 68.3397C561.543 56.8958 618.047 28.9838 671.892 14.8032C719.642 2.22234 771.776 -2.95839 818 12.7608V78H0V59.3807C69.8474 32.9295 145.613 26.0807 219.081 39.5768Z" fill="black"/>
<path d="M1279.92 39.5768C1240.38 46.9224 1202.1 60.0887 1162.67 68.0742C1106.51 79.4569 1048.02 80.1445 991.949 68.3397C937.457 56.8958 880.953 28.9838 827.108 14.8032C779.358 2.22234 727.224 -2.95839 681 12.7608V78H1499V59.3807C1429.15 32.9295 1353.39 26.0807 1279.92 39.5768Z" fill="black"/>
<path d="M1433.08 39.5768C1472.62 46.9224 1510.9 60.0887 1550.33 68.0742C1606.49 79.4569 1664.98 80.1445 1721.05 68.3397C1775.54 56.8958 1832.05 28.9838 1885.89 14.8032C1933.64 2.22234 1985.78 -2.95839 2032 12.7608V78H1214V59.3807C1283.85 32.9295 1359.61 26.0807 1433.08 39.5768Z" fill="black"/>
</g>
<defs>
<clipPath id="clip0_1256_837">
<rect width="2000" height="78" fill="white"/>
</clipPath>
</defs>
</svg>
