<svg width="418" height="188" viewBox="0 0 418 188" fill="none" xmlns="http://www.w3.org/2000/svg">
<path d="M88.763 113.863C86.141 111.977 84.301 109.907 83.243 107.653C82.185 105.399 81.656 102.685 81.656 99.511C81.656 98.177 81.725 96.843 81.863 95.509C82.047 93.485 82.507 91.254 83.243 88.816C84.025 86.332 85.014 83.848 86.21 81.364C87.406 78.834 88.786 76.373 90.35 73.981C91.96 71.589 93.708 69.473 95.594 67.633C97.48 65.793 99.504 64.321 101.666 63.217C103.828 62.067 106.082 61.492 108.428 61.492C108.98 61.492 109.417 61.538 109.739 61.63C110.107 61.722 110.429 61.837 110.705 61.975C110.981 62.113 111.257 62.274 111.533 62.458C111.855 62.642 112.246 62.826 112.706 63.01C113.212 62.596 113.764 62.251 114.362 61.975C115.006 61.699 115.65 61.561 116.294 61.561C116.984 61.561 117.72 61.883 118.502 62.527C119.33 63.125 120.089 63.861 120.779 64.735C121.469 65.609 122.067 66.529 122.573 67.495C123.079 68.415 123.401 69.174 123.539 69.772C123.723 70.002 123.838 70.393 123.884 70.945C123.976 71.451 124.022 71.842 124.022 72.118C124.022 72.348 123.999 72.578 123.953 72.808C123.953 73.038 123.884 73.222 123.746 73.36C123.884 73.866 123.884 74.487 123.746 75.223C123.654 75.959 123.516 76.741 123.332 77.569C123.148 78.351 122.964 79.133 122.78 79.915C122.596 80.697 122.481 81.364 122.435 81.916C122.343 82.652 122.159 83.388 121.883 84.124C121.653 84.86 121.538 85.596 121.538 86.332V86.746L121.676 86.677L122.021 85.573C121.929 86.493 121.63 87.666 121.124 89.092C120.664 90.472 120.112 91.898 119.468 93.37C118.824 94.842 118.157 96.268 117.467 97.648C116.777 98.982 116.179 100.04 115.673 100.822C115.167 101.512 114.615 102.156 114.017 102.754C113.465 103.352 112.982 104.042 112.568 104.824L112.223 105.445C111.993 105.813 111.602 106.273 111.05 106.825C110.544 107.377 109.969 107.952 109.325 108.55C108.727 109.148 108.106 109.7 107.462 110.206C106.864 110.712 106.404 111.08 106.082 111.31C105.024 112.092 103.897 112.759 102.701 113.311C101.551 113.863 100.378 114.369 99.182 114.829C99.78 115.473 100.424 116.186 101.114 116.968C101.804 117.75 102.54 118.463 103.322 119.107C104.104 119.751 104.932 120.28 105.806 120.694C106.68 121.154 107.6 121.384 108.566 121.384C109.026 121.384 109.578 121.315 110.222 121.177C110.912 121.039 111.579 120.832 112.223 120.556C112.913 120.326 113.534 120.05 114.086 119.728C114.684 119.406 115.121 119.038 115.397 118.624C115.719 118.164 115.972 117.727 116.156 117.313C116.386 116.945 116.547 116.485 116.639 115.933C116.685 115.611 116.754 115.335 116.846 115.105C116.938 114.875 117.191 114.76 117.605 114.76C117.789 114.76 117.95 114.783 118.088 114.829C118.272 114.875 118.364 115.013 118.364 115.243C118.364 115.289 118.341 115.312 118.295 115.312C118.295 115.358 118.295 115.404 118.295 115.45L118.364 115.864C118.87 115.864 119.215 116.163 119.399 116.761C119.629 117.405 119.79 117.911 119.882 118.279L120.158 118.762C120.112 119.13 120.112 119.498 120.158 119.866C120.204 120.234 120.227 120.602 120.227 120.97C120.227 121.384 120.204 121.706 120.158 121.936L119.744 122.074C119.836 122.166 119.882 122.281 119.882 122.419C119.882 122.603 119.767 122.695 119.537 122.695L119.33 122.971C119.422 123.569 119.169 124.144 118.571 124.696C118.019 125.294 117.329 125.823 116.501 126.283C115.673 126.789 114.822 127.203 113.948 127.525C113.12 127.847 112.476 128.077 112.016 128.215L111.878 128.077L111.809 128.284C111.579 128.376 111.326 128.445 111.05 128.491C110.774 128.537 110.521 128.56 110.291 128.56H110.015C109.785 128.468 109.555 128.307 109.325 128.077C109.141 127.893 108.98 127.686 108.842 127.456H108.566C108.244 127.456 108.014 127.502 107.876 127.594V127.87L107.255 128.008L106.634 127.801L106.496 127.456C106.036 127.502 105.622 127.272 105.254 126.766L104.84 126.628C104.426 126.076 103.92 125.662 103.322 125.386C102.724 125.11 102.218 124.696 101.804 124.144L101.39 123.937L101.183 123.661C100.861 123.523 100.447 123.178 99.941 122.626C99.435 122.074 98.906 121.453 98.354 120.763C97.802 120.073 97.273 119.383 96.767 118.693C96.307 118.049 95.939 117.566 95.663 117.244C95.479 117.198 95.295 117.129 95.111 117.037C94.973 116.991 94.812 116.968 94.628 116.968C94.122 116.968 93.662 117.06 93.248 117.244C92.88 117.428 92.535 117.635 92.213 117.865C91.891 118.141 91.569 118.417 91.247 118.693C90.971 119.015 90.626 119.291 90.212 119.521C90.534 119.015 90.948 118.578 91.454 118.21C91.96 117.888 92.374 117.474 92.696 116.968L92.42 117.037C91.5 117.727 90.856 118.302 90.488 118.762C90.12 119.222 89.867 119.636 89.729 120.004C89.591 120.418 89.43 120.832 89.246 121.246C89.108 121.66 88.786 122.166 88.28 122.764C88.096 123.04 87.912 123.155 87.728 123.109L87.176 122.281L86.969 122.419L86.141 122.143C85.727 121.545 85.52 120.901 85.52 120.211C85.52 118.969 85.819 117.796 86.417 116.692C87.061 115.588 87.843 114.645 88.763 113.863ZM116.087 67.357C115.673 67.357 115.236 67.656 114.776 68.254C114.316 68.806 113.833 69.542 113.327 70.462C112.867 71.336 112.407 72.302 111.947 73.36C111.533 74.418 111.119 75.476 110.705 76.534C110.337 77.546 109.992 78.466 109.67 79.294C109.348 80.122 109.095 80.72 108.911 81.088L108.497 81.433L108.566 81.088L107.669 80.26C107.577 80.306 107.462 80.375 107.324 80.467C107.232 80.513 107.14 80.536 107.048 80.536C106.956 80.536 106.864 80.513 106.772 80.467V79.708L106.634 79.501L106.358 79.639C106.496 78.811 106.703 77.983 106.979 77.155C107.301 76.281 107.6 75.43 107.876 74.602C108.152 73.728 108.405 72.877 108.635 72.049C108.865 71.175 108.98 70.324 108.98 69.496C108.842 69.588 108.727 69.68 108.635 69.772C108.543 69.864 108.451 69.956 108.359 70.048C107.209 71.152 106.082 72.256 104.978 73.36C103.874 74.464 102.839 75.66 101.873 76.948C101.367 77.638 100.907 78.351 100.493 79.087C100.125 79.823 99.734 80.582 99.32 81.364C98.952 82.1 98.538 82.836 98.078 83.572C97.664 84.308 97.181 84.975 96.629 85.573C96.537 86.033 96.399 86.493 96.215 86.953C96.031 87.413 95.847 87.85 95.663 88.264C95.065 90.012 94.421 91.829 93.731 93.715C93.087 95.555 92.673 97.395 92.489 99.235C92.443 99.465 92.42 99.672 92.42 99.856C92.42 99.994 92.42 100.178 92.42 100.408C92.42 100.73 92.443 101.397 92.489 102.409C92.535 103.375 92.627 104.387 92.765 105.445C92.903 106.503 93.087 107.446 93.317 108.274C93.593 109.102 93.938 109.516 94.352 109.516C95.962 109.516 97.664 108.803 99.458 107.377C101.252 105.905 103.023 104.019 104.771 101.719C106.519 99.419 108.175 96.866 109.739 94.06C111.349 91.208 112.752 88.402 113.948 85.642C115.19 82.836 116.179 80.237 116.915 77.845C117.651 75.453 118.019 73.521 118.019 72.049C118.019 71.773 117.996 71.428 117.95 71.014C117.95 70.554 117.904 70.094 117.812 69.634C117.766 69.174 117.674 68.76 117.536 68.392C117.398 67.978 117.214 67.679 116.984 67.495C116.34 67.863 115.765 68.323 115.259 68.875C114.799 69.381 114.293 69.887 113.741 70.393C113.833 69.795 114.178 69.289 114.776 68.875C115.374 68.415 115.834 67.932 116.156 67.426L116.087 67.357ZM109.67 67.909C109.532 67.955 109.417 68.024 109.325 68.116C109.233 68.162 109.141 68.231 109.049 68.323C105.415 71.083 102.241 74.395 99.527 78.259C96.859 82.077 94.858 86.194 93.524 90.61C93.708 90.38 93.823 90.15 93.869 89.92C93.961 89.69 94.122 89.46 94.352 89.23C94.444 88.632 94.651 87.942 94.973 87.16C95.295 86.332 95.686 85.734 96.146 85.366C96.146 85.182 96.169 84.975 96.215 84.745C96.307 84.515 96.399 84.331 96.491 84.193C96.675 83.871 96.882 83.572 97.112 83.296C97.342 83.02 97.549 82.721 97.733 82.399C98.239 81.617 98.699 80.812 99.113 79.984C99.573 79.11 100.079 78.282 100.631 77.5C101.827 75.89 103.115 74.395 104.495 73.015C105.921 71.635 107.37 70.278 108.842 68.944C109.026 68.806 109.187 68.668 109.325 68.53C109.463 68.346 109.578 68.139 109.67 67.909ZM91.592 76.258C91.086 77.454 90.511 78.627 89.867 79.777C89.223 80.881 88.648 82.031 88.142 83.227C88.97 81.387 89.89 79.708 90.902 78.19C91.914 76.672 93.018 75.246 94.214 73.912C95.41 72.578 96.652 71.29 97.94 70.048C99.274 68.76 100.677 67.449 102.149 66.115C102.241 66.023 102.379 65.908 102.563 65.77C102.793 65.586 102.908 65.448 102.908 65.356V65.287C101.988 65.287 101.022 65.77 100.01 66.736C98.998 67.656 97.986 68.737 96.974 69.979C96.008 71.175 95.065 72.371 94.145 73.567C93.225 74.717 92.397 75.568 91.661 76.12L91.592 75.775C92.052 75.085 92.558 74.418 93.11 73.774C93.708 73.084 94.191 72.371 94.559 71.635C94.283 71.911 93.915 72.348 93.455 72.946C92.995 73.498 92.535 74.096 92.075 74.74C91.661 75.338 91.27 75.936 90.902 76.534C90.534 77.132 90.304 77.615 90.212 77.983C90.35 77.753 90.557 77.431 90.833 77.017C91.109 76.603 91.362 76.35 91.592 76.258ZM93.041 87.919C93.225 87.597 93.386 87.298 93.524 87.022C93.708 86.7 93.869 86.378 94.007 86.056C94.973 84.078 95.893 82.399 96.767 81.019C97.687 79.593 98.607 78.282 99.527 77.086C100.493 75.89 101.505 74.694 102.563 73.498C103.621 72.256 104.817 70.807 106.151 69.151C105.645 69.381 104.955 69.956 104.081 70.876C103.207 71.75 102.31 72.739 101.39 73.843C100.516 74.901 99.688 75.959 98.906 77.017C98.124 78.029 97.572 78.811 97.25 79.363C97.066 79.685 96.744 80.237 96.284 81.019C95.824 81.801 95.341 82.652 94.835 83.572C94.375 84.446 93.961 85.297 93.593 86.125C93.225 86.907 93.041 87.436 93.041 87.712V87.919ZM106.013 102.892C106.703 102.34 107.439 101.558 108.221 100.546C109.003 99.534 109.739 98.453 110.429 97.303C111.165 96.153 111.832 95.003 112.43 93.853C113.074 92.703 113.58 91.714 113.948 90.886C113.626 91.254 113.35 91.645 113.12 92.059C112.89 92.473 112.66 92.887 112.43 93.301C111.418 94.957 110.291 96.544 109.049 98.062C107.853 99.534 106.841 101.144 106.013 102.892ZM92.834 81.364C93.248 80.996 93.777 80.375 94.421 79.501C95.065 78.627 95.709 77.707 96.353 76.741C97.043 75.729 97.71 74.74 98.354 73.774C98.998 72.808 99.527 72.026 99.941 71.428C99.113 72.256 98.262 73.176 97.388 74.188C96.56 75.2 95.755 76.258 94.973 77.362C94.237 78.466 93.547 79.593 92.903 80.743C92.305 81.893 91.822 83.02 91.454 84.124C91.73 83.756 91.983 83.319 92.213 82.813C92.443 82.307 92.65 81.824 92.834 81.364ZM120.503 89.575C119.169 91.875 117.95 94.198 116.846 96.544C115.742 98.89 114.454 101.167 112.982 103.375C112.798 103.651 112.683 103.858 112.637 103.996C113.373 103.582 114.109 102.754 114.845 101.512C115.581 100.27 116.294 98.913 116.984 97.441C117.674 95.923 118.318 94.451 118.916 93.025C119.514 91.553 120.043 90.403 120.503 89.575ZM110.774 122.695L111.947 122.971C112.361 122.879 112.752 122.718 113.12 122.488C113.534 122.258 113.948 122.097 114.362 122.005L114.569 121.591L114.845 121.798L115.19 121.729C115.098 121.637 115.006 121.522 114.914 121.384C114.822 121.292 114.776 121.177 114.776 121.039C114.776 120.947 114.845 120.855 114.983 120.763C115.167 120.717 115.259 120.648 115.259 120.556H115.19C115.144 120.556 115.029 120.602 114.845 120.694C114.707 120.786 114.546 120.878 114.362 120.97C114.178 121.108 113.994 121.223 113.81 121.315C113.672 121.453 113.603 121.545 113.603 121.591C113.879 121.407 114.086 121.292 114.224 121.246L113.879 121.591C113.373 121.821 112.867 122.005 112.361 122.143C111.901 122.281 111.418 122.465 110.912 122.695H110.774ZM118.433 91.783C118.341 91.967 118.042 92.519 117.536 93.439C117.03 94.359 116.478 95.348 115.88 96.406C115.328 97.418 114.822 98.361 114.362 99.235C113.902 100.063 113.672 100.5 113.672 100.546V100.615C113.856 100.569 114.178 100.155 114.638 99.373C115.098 98.545 115.581 97.625 116.087 96.613C116.639 95.555 117.122 94.566 117.536 93.646C117.996 92.68 118.295 92.059 118.433 91.783ZM116.225 91.852C116.087 91.806 115.949 91.898 115.811 92.128L112.568 98.062C112.706 98.016 112.936 97.717 113.258 97.165C113.626 96.613 113.994 95.992 114.362 95.302C114.776 94.566 115.144 93.876 115.466 93.232C115.834 92.542 116.087 92.082 116.225 91.852ZM114.983 126.559C115.121 126.467 115.42 126.306 115.88 126.076C116.386 125.846 116.639 125.639 116.639 125.455L116.57 125.386C116.202 125.386 115.903 125.478 115.673 125.662C115.443 125.892 115.167 126.053 114.845 126.145L114.983 125.869H114.845C114.477 126.099 114.155 126.352 113.879 126.628L113.81 126.49L113.948 126.076L113.534 126.283L113.396 126.559C113.304 126.467 113.235 126.421 113.189 126.421V126.766L114.983 126.559ZM90.281 114.622C90.235 114.622 90.189 114.599 90.143 114.553C90.097 114.553 90.051 114.553 90.005 114.553C89.499 114.553 89.062 114.783 88.694 115.243C88.372 115.749 88.05 116.163 87.728 116.485L88.142 116.416L90.281 114.622ZM115.397 123.178L114.914 123.385C114.73 123.707 114.385 124.006 113.879 124.282H112.982C113.12 124.328 113.258 124.374 113.396 124.42C113.534 124.466 113.672 124.489 113.81 124.489C113.856 124.489 113.971 124.443 114.155 124.351C114.385 124.305 114.615 124.213 114.845 124.075C115.121 123.983 115.351 123.891 115.535 123.799C115.719 123.707 115.834 123.661 115.88 123.661L115.673 123.523C115.443 123.523 115.19 123.615 114.914 123.799L115.397 123.178ZM89.66 118.831C90.488 117.957 91.477 117.152 92.627 116.416C92.029 116.646 91.454 116.945 90.902 117.313C90.35 117.727 89.936 118.233 89.66 118.831ZM115.535 66.805C115.167 67.035 114.822 67.311 114.5 67.633C114.224 67.955 113.994 68.3 113.81 68.668C114.362 68.208 114.937 67.587 115.535 66.805ZM121.193 87.712C120.963 87.712 120.802 87.896 120.71 88.264C120.618 88.632 120.526 88.908 120.434 89.092L120.848 88.402L121.4 88.057L121.193 87.712ZM116.225 125.248L116.777 125.11C116.869 125.018 116.961 124.88 117.053 124.696C117.145 124.558 117.26 124.466 117.398 124.42C117.03 124.466 116.662 124.673 116.294 125.041L116.225 125.248ZM112.637 127.594L112.43 127.387L112.154 127.594V127.663C112.154 127.755 112.269 127.847 112.499 127.939L112.637 127.594ZM114.293 63.838C113.971 63.838 113.81 63.976 113.81 64.252L114.224 64.183L114.362 63.907L114.293 63.838ZM116.501 127.249L116.432 127.18L116.984 126.697L117.122 126.835L116.708 127.18L116.501 127.249ZM113.258 67.012L114.017 66.184C113.925 66.184 113.787 66.299 113.603 66.529C113.419 66.713 113.281 66.851 113.189 66.943L113.258 67.012ZM115.19 128.008L114.776 127.939C115.052 127.893 115.305 127.801 115.535 127.663L115.604 127.87L115.19 128.008ZM122.366 83.848L122.573 83.986L122.435 84.469L122.297 84.4L122.366 83.848ZM116.156 123.04L116.363 123.247L116.501 123.04L116.294 122.695L116.156 123.04ZM112.982 91.783C112.89 91.875 112.775 92.036 112.637 92.266C112.499 92.45 112.43 92.611 112.43 92.749C112.522 92.565 112.637 92.427 112.775 92.335C112.913 92.197 112.982 92.013 112.982 91.783ZM90.074 116.416C89.89 116.554 89.683 116.692 89.453 116.83C89.269 117.014 89.131 117.221 89.039 117.451L90.074 116.416ZM113.396 128.629V128.422L113.672 128.284L113.81 128.422L113.396 128.629ZM122.711 83.02L122.573 82.951L122.78 82.606L122.918 82.813L122.711 83.02ZM109.601 127.87L109.877 128.077V127.87L109.67 127.594L109.601 127.87ZM122.642 83.227L122.78 83.365L122.642 83.572L122.435 83.365L122.642 83.227ZM115.949 127.456L116.156 127.249L116.294 127.456L116.156 127.594L115.949 127.456ZM108.497 127.732L108.98 128.422H108.842L108.497 127.732ZM118.364 117.382L118.502 117.244L118.364 117.037L118.226 117.244L118.364 117.382ZM89.729 78.535L89.798 78.673L89.936 78.466L89.798 78.259L89.729 78.535ZM110.015 127.249L110.153 127.456L110.291 127.387L110.153 127.18L110.015 127.249ZM109.532 128.767L109.394 128.629L109.601 128.56L109.67 128.767H109.532ZM92.903 88.264L92.765 88.678L93.11 88.126L92.903 88.264ZM112.016 128.422L111.809 128.284L112.016 128.215L112.085 128.284L112.016 128.422ZM89.177 79.639L89.315 79.57V79.294L89.177 79.501V79.639ZM95.249 70.738C95.341 70.692 95.479 70.577 95.663 70.393V70.324L95.249 70.738ZM117.398 126.766V126.559L117.605 126.421L117.398 126.766ZM87.659 83.848L88.004 83.434L87.728 83.641L87.659 83.848ZM122.159 85.159L122.021 85.573C122.021 85.481 122.067 85.343 122.159 85.159ZM114.155 89.644C113.971 89.828 113.856 89.966 113.81 90.058L114.155 89.644ZM127.076 118.003C126.708 118.003 126.409 117.796 126.179 117.382C125.949 117.014 125.65 116.738 125.282 116.554C124.178 115.956 123.12 115.335 122.108 114.691C121.096 114.047 120.406 113.058 120.038 111.724C120.084 111.448 120.199 111.241 120.383 111.103C120.613 110.919 120.843 110.758 121.073 110.62C121.763 110.666 122.384 110.942 122.936 111.448C123.534 111.908 124.155 112.138 124.799 112.138H125.006C124.73 111.356 124.523 110.551 124.385 109.723C124.293 108.895 124.247 108.067 124.247 107.239C124.247 104.663 124.569 101.949 125.213 99.097C125.857 96.245 126.685 93.416 127.697 90.61C128.755 87.758 129.905 84.998 131.147 82.33C132.389 79.662 133.631 77.201 134.873 74.947C135.149 74.487 135.494 73.935 135.908 73.291C136.368 72.601 136.828 71.911 137.288 71.221C137.794 70.485 138.231 69.795 138.599 69.151C139.013 68.507 139.289 67.978 139.427 67.564C139.381 67.564 139.335 67.564 139.289 67.564C139.289 67.518 139.266 67.495 139.22 67.495C139.082 67.495 138.852 67.564 138.53 67.702C138.254 67.794 137.932 67.909 137.564 68.047C137.242 68.185 136.92 68.323 136.598 68.461C136.276 68.599 136.023 68.691 135.839 68.737L135.287 69.22L134.942 69.289L134.666 69.22C134.574 69.312 134.413 69.427 134.183 69.565C133.999 69.657 133.838 69.703 133.7 69.703C133.424 69.703 133.148 69.657 132.872 69.565C132.596 69.473 132.297 69.427 131.975 69.427C132.389 68.921 132.803 68.461 133.217 68.047C133.677 67.587 134.114 67.127 134.528 66.667C134.022 66.897 133.516 67.288 133.01 67.84C132.504 68.392 132.044 68.714 131.63 68.806C132.182 67.702 133.01 66.759 134.114 65.977C135.218 65.195 136.414 64.528 137.702 63.976C139.036 63.424 140.393 62.964 141.773 62.596C143.153 62.182 144.395 61.814 145.499 61.492C145.591 61.676 145.637 61.837 145.637 61.975L145.844 61.768C145.936 61.492 146.189 61.354 146.603 61.354C147.017 61.308 147.339 61.285 147.569 61.285C147.983 61.285 148.374 61.308 148.742 61.354C149.156 61.354 149.547 61.377 149.915 61.423C150.145 61.331 150.375 61.285 150.605 61.285C150.835 61.285 151.065 61.262 151.295 61.216C151.663 61.4 152.1 61.538 152.606 61.63L152.882 61.561V61.147C153.066 61.239 153.273 61.308 153.503 61.354C153.733 61.354 153.963 61.377 154.193 61.423C154.423 61.469 154.63 61.538 154.814 61.63C155.044 61.676 155.228 61.791 155.366 61.975L155.504 62.044C155.872 62.044 156.217 62.182 156.539 62.458C156.907 62.688 157.206 62.918 157.436 63.148L157.781 63.217C159.391 64.275 160.518 65.632 161.162 67.288C161.852 68.944 162.197 70.715 162.197 72.601C162.197 72.831 162.174 73.153 162.128 73.567C162.128 73.981 162.082 74.418 161.99 74.878C161.944 75.292 161.852 75.683 161.714 76.051C161.576 76.419 161.415 76.672 161.231 76.81L161.024 77.776C160.564 78.236 160.196 78.742 159.92 79.294C159.644 79.846 159.276 80.352 158.816 80.812C158.31 81.824 157.597 82.859 156.677 83.917C155.803 84.929 154.975 85.849 154.193 86.677H154.538C154.998 86.493 155.366 86.286 155.642 86.056C155.964 85.78 156.217 85.504 156.401 85.228C156.631 84.952 156.861 84.699 157.091 84.469C157.321 84.193 157.62 83.94 157.988 83.71C157.62 84.354 157.16 84.929 156.608 85.435C156.102 85.941 155.573 86.447 155.021 86.953C155.573 87.597 156.24 88.287 157.022 89.023C157.85 89.759 158.632 90.541 159.368 91.369C160.104 92.151 160.725 92.979 161.231 93.853C161.737 94.727 161.99 95.624 161.99 96.544V96.889L161.921 97.027C161.967 97.441 161.99 97.993 161.99 98.683C162.036 99.373 162.059 100.063 162.059 100.753C162.059 101.443 162.059 102.087 162.059 102.685C162.059 103.237 162.105 103.628 162.197 103.858L161.921 104.479L161.852 103.858C160.702 105.974 159.414 107.837 157.988 109.447C156.608 111.057 155.159 112.759 153.641 114.553C154.285 114.323 154.883 113.932 155.435 113.38C155.987 112.874 156.493 112.322 156.953 111.724C157.459 111.08 157.942 110.459 158.402 109.861C158.908 109.217 159.437 108.711 159.989 108.343C160.173 107.929 160.38 107.538 160.61 107.17C160.84 106.802 161.047 106.411 161.231 105.997C161.323 105.951 161.415 105.79 161.507 105.514C161.645 105.192 161.76 104.985 161.852 104.893C161.852 105.261 161.714 105.698 161.438 106.204C161.208 106.71 161.001 107.124 160.817 107.446C160.955 107.814 160.794 108.343 160.334 109.033C159.874 109.677 159.23 110.39 158.402 111.172C157.62 111.954 156.7 112.759 155.642 113.587C154.63 114.461 153.618 115.243 152.606 115.933C151.64 116.669 150.743 117.29 149.915 117.796C149.133 118.302 148.558 118.624 148.19 118.762C147.96 118.992 147.477 119.176 146.741 119.314C146.005 119.498 145.2 119.636 144.326 119.728C143.498 119.866 142.67 119.958 141.842 120.004C141.06 120.05 140.462 120.073 140.048 120.073C139.956 120.073 139.818 120.073 139.634 120.073C139.496 120.073 139.381 120.027 139.289 119.935C137.679 119.751 136.092 119.429 134.528 118.969C132.964 118.509 131.377 118.279 129.767 118.279H129.353C129.215 118.417 129.077 118.486 128.939 118.486C128.663 118.486 128.387 118.348 128.111 118.072C127.881 117.796 127.674 117.658 127.49 117.658C127.398 117.658 127.352 117.704 127.352 117.796C127.352 117.934 127.26 118.003 127.076 118.003ZM133.355 112.552C135.885 112.552 138.438 112.138 141.014 111.31C143.59 110.436 145.936 109.194 148.052 107.584C150.168 105.974 151.893 104.042 153.227 101.788C154.561 99.534 155.228 97.027 155.228 94.267C155.228 93.393 155.09 92.726 154.814 92.266C154.584 91.76 154.239 91.392 153.779 91.162C153.319 90.932 152.767 90.817 152.123 90.817C151.479 90.771 150.789 90.748 150.053 90.748C149.409 90.748 148.512 90.84 147.362 91.024C146.212 91.208 145.039 91.484 143.843 91.852C142.693 92.22 141.635 92.657 140.669 93.163C139.749 93.669 139.174 94.221 138.944 94.819C138.622 95.601 138.346 96.429 138.116 97.303C137.886 98.131 137.633 98.959 137.357 99.787C136.621 101.903 135.885 104.019 135.149 106.135C134.459 108.205 133.861 110.344 133.355 112.552ZM149.708 64.942L149.846 65.356L149.639 65.287L149.225 65.356C149.087 65.54 148.972 65.724 148.88 65.908C148.834 66.092 148.765 66.299 148.673 66.529C147.891 69.565 146.902 72.486 145.706 75.292C144.51 78.052 143.452 80.904 142.532 83.848C142.808 83.802 143.429 83.296 144.395 82.33C145.407 81.318 146.511 80.214 147.707 79.018C148.903 77.776 150.076 76.603 151.226 75.499C152.376 74.349 153.227 73.613 153.779 73.291L153.848 73.153C153.94 72.233 154.216 71.29 154.676 70.324C155.182 69.358 155.435 68.461 155.435 67.633C155.435 67.127 155.343 66.759 155.159 66.529C155.021 66.299 154.837 66.115 154.607 65.977C154.377 65.839 154.101 65.724 153.779 65.632C153.503 65.494 153.204 65.287 152.882 65.011L152.951 65.563L152.054 65.08H151.502L151.088 65.356C150.858 65.264 150.651 65.172 150.467 65.08C150.283 64.942 150.076 64.781 149.846 64.597L149.708 64.942ZM126.11 110.827C126.156 111.011 126.248 111.149 126.386 111.241C126.524 111.333 126.662 111.425 126.8 111.517L127.352 111.31L126.938 111.172L126.869 110.758L127.076 110.344C127.352 109.378 127.559 108.366 127.697 107.308C127.835 106.25 127.973 105.215 128.111 104.203C128.433 102.133 128.778 100.086 129.146 98.062C129.56 96.038 130.112 94.014 130.802 91.99C132.32 87.528 134.114 83.181 136.184 78.949C138.254 74.717 140.485 70.554 142.877 66.46C142.509 66.46 141.957 67.012 141.221 68.116C140.485 69.22 139.657 70.646 138.737 72.394C137.817 74.096 136.874 75.982 135.908 78.052C134.942 80.122 134.022 82.123 133.148 84.055C132.32 85.987 131.584 87.712 130.94 89.23C130.342 90.702 129.951 91.737 129.767 92.335C129.123 94.451 128.525 96.59 127.973 98.752C127.467 100.868 127.099 103.03 126.869 105.238C126.777 106.158 126.708 107.078 126.662 107.998C126.662 108.918 126.524 109.815 126.248 110.689L126.11 110.827ZM149.708 80.122C149.57 80.214 149.225 80.49 148.673 80.95C148.167 81.41 147.615 81.916 147.017 82.468C146.465 83.02 145.936 83.549 145.43 84.055C144.97 84.561 144.694 84.883 144.602 85.021L144.947 85.09C145.131 84.952 145.315 84.814 145.499 84.676C145.683 84.538 145.89 84.446 146.12 84.4L146.258 84.469L148.052 82.744L148.742 82.537L152.261 79.087C152.399 79.087 152.491 79.018 152.537 78.88C152.629 78.696 152.675 78.558 152.675 78.466L152.882 78.397L153.158 78.466C153.02 78.19 153.02 78.006 153.158 77.914C153.342 77.776 153.434 77.592 153.434 77.362V77.224L153.71 77.293L154.331 77.017C154.239 76.925 154.124 76.81 153.986 76.672C153.848 76.488 153.779 76.304 153.779 76.12L153.986 75.775L154.469 75.637C154.515 75.499 154.561 75.384 154.607 75.292C154.699 75.154 154.768 75.016 154.814 74.878L154.607 74.671L154.331 74.809C153.779 75.453 153.158 76.097 152.468 76.741C151.824 77.385 151.295 78.098 150.881 78.88C150.881 79.11 150.766 79.271 150.536 79.363C150.306 79.455 150.099 79.524 149.915 79.57L149.708 80.122ZM145.361 66.184C144.165 67.702 143.153 69.404 142.325 71.29C141.543 73.13 140.738 74.924 139.91 76.672C139.726 77.04 139.496 77.569 139.22 78.259C138.944 78.903 138.645 79.57 138.323 80.26C138.047 80.95 137.771 81.617 137.495 82.261C137.265 82.859 137.081 83.273 136.943 83.503L137.081 83.365C137.679 82.077 138.369 80.697 139.151 79.225C139.979 77.707 140.784 76.189 141.566 74.671C142.348 73.153 143.084 71.681 143.774 70.255C144.464 68.783 144.993 67.426 145.361 66.184ZM147.914 67.771C146.58 70.669 145.315 73.567 144.119 76.465C142.969 79.363 141.819 82.284 140.669 85.228H140.945C142.371 82.422 143.636 79.57 144.74 76.672C145.89 73.728 146.948 70.761 147.914 67.771ZM156.332 77.293C156.24 77.799 155.941 78.236 155.435 78.604C154.975 78.972 154.607 79.34 154.331 79.708L154.883 79.57C154.837 79.708 154.653 79.938 154.331 80.26C154.055 80.536 153.848 80.674 153.71 80.674C153.48 80.674 153.296 80.674 153.158 80.674C153.02 80.674 152.951 80.835 152.951 81.157L153.089 81.433C152.905 81.663 152.675 81.824 152.399 81.916C152.123 82.008 151.87 82.1 151.64 82.192L150.743 83.503C150.973 83.503 151.157 83.365 151.295 83.089C151.433 82.813 151.594 82.675 151.778 82.675L152.192 82.882L153.296 81.847C153.434 81.709 153.572 81.617 153.71 81.571C153.894 81.479 154.055 81.341 154.193 81.157C154.515 80.881 154.791 80.582 155.021 80.26C155.251 79.892 155.55 79.593 155.918 79.363L156.263 78.328C156.401 78.19 156.585 78.075 156.815 77.983C156.999 77.753 157.16 77.546 157.298 77.362C157.436 77.178 157.505 76.948 157.505 76.672C157.505 76.58 157.482 76.488 157.436 76.396C157.436 76.258 157.436 76.143 157.436 76.051C157.298 76.051 157.114 76.212 156.884 76.534C156.7 76.81 156.447 76.948 156.125 76.948L155.78 77.224C155.872 77.27 156.056 77.293 156.332 77.293ZM136.253 100.339C136.115 100.431 135.954 100.753 135.77 101.305C135.632 101.811 135.471 102.409 135.287 103.099C135.149 103.789 135.011 104.456 134.873 105.1C134.735 105.698 134.643 106.089 134.597 106.273C134.919 105.537 135.264 104.617 135.632 103.513C136.046 102.409 136.414 101.259 136.736 100.063C137.104 98.867 137.426 97.717 137.702 96.613C137.978 95.463 138.185 94.497 138.323 93.715C137.311 95.831 136.621 98.039 136.253 100.339ZM145.568 70.669C145.384 71.083 145.085 71.727 144.671 72.601C144.303 73.475 143.866 74.464 143.36 75.568C142.9 76.626 142.394 77.753 141.842 78.949C141.336 80.145 140.853 81.272 140.393 82.33C139.979 83.388 139.611 84.308 139.289 85.09C139.013 85.872 138.852 86.401 138.806 86.677L138.875 86.746C140.163 84.17 141.336 81.525 142.394 78.811C143.452 76.051 144.51 73.337 145.568 70.669ZM153.089 106.204C153.181 105.974 153.273 105.744 153.365 105.514C153.457 105.284 153.618 105.077 153.848 104.893C153.664 104.985 153.273 105.307 152.675 105.859C152.077 106.411 151.456 107.032 150.812 107.722C150.168 108.366 149.593 108.964 149.087 109.516C148.581 110.068 148.328 110.367 148.328 110.413L148.466 110.482L148.673 110.344L148.742 109.999C149.018 109.999 149.363 109.838 149.777 109.516C150.191 109.194 150.605 108.826 151.019 108.412C151.433 107.998 151.824 107.584 152.192 107.17C152.56 106.756 152.859 106.434 153.089 106.204ZM157.229 80.881C157.183 81.065 156.999 81.364 156.677 81.778C156.401 82.146 156.056 82.537 155.642 82.951C155.274 83.365 154.906 83.779 154.538 84.193C154.216 84.561 153.963 84.837 153.779 85.021L153.572 84.745C153.48 84.975 153.365 85.182 153.227 85.366C153.089 85.504 152.974 85.665 152.882 85.849L154.124 85.228C154.722 84.492 155.32 83.802 155.918 83.158C156.562 82.468 157.16 81.755 157.712 81.019L157.574 80.674L157.229 80.881ZM158.333 107.998C158.149 108.09 157.896 108.297 157.574 108.619C157.252 108.941 156.907 109.309 156.539 109.723C156.171 110.091 155.826 110.459 155.504 110.827C155.182 111.195 154.952 111.471 154.814 111.655C155.55 111.195 156.194 110.643 156.746 109.999C157.298 109.355 157.827 108.688 158.333 107.998ZM158.195 83.365C158.379 82.997 158.54 82.629 158.678 82.261C158.816 81.847 159.069 81.525 159.437 81.295L159.506 81.64C159.138 82.284 158.77 82.859 158.402 83.365H158.195ZM132.044 109.999C131.814 110.229 131.676 110.62 131.63 111.172C131.63 111.724 131.63 112.138 131.63 112.414V112.828C131.814 112.46 131.929 112.069 131.975 111.655C132.021 111.195 132.09 110.758 132.182 110.344L132.044 109.999ZM132.803 112.69C132.987 112.414 133.102 112.092 133.148 111.724C133.194 111.31 133.217 110.942 133.217 110.62C133.217 110.436 133.194 110.298 133.148 110.206C132.872 110.758 132.734 111.402 132.734 112.138C132.734 112.368 132.757 112.552 132.803 112.69ZM157.781 79.087C157.781 79.179 157.804 79.294 157.85 79.432C157.942 79.57 158.057 79.593 158.195 79.501L158.471 79.57L158.816 79.432L158.678 79.294V79.018C158.678 78.742 158.701 78.535 158.747 78.397L158.402 78.811L157.85 79.018L157.781 79.087ZM129.56 113.035C129.698 112.575 129.767 112.092 129.767 111.586C129.767 111.034 129.767 110.505 129.767 109.999V109.378C129.721 109.884 129.652 110.367 129.56 110.827C129.514 111.287 129.491 111.77 129.491 112.276C129.491 112.414 129.491 112.529 129.491 112.621C129.537 112.759 129.56 112.897 129.56 113.035ZM151.502 78.466C151.778 78.098 152.077 77.753 152.399 77.431C152.767 77.109 153.135 76.787 153.503 76.465C153.273 76.879 152.974 77.247 152.606 77.569C152.238 77.891 151.87 78.19 151.502 78.466ZM155.78 107.101C155.688 107.101 155.527 107.216 155.297 107.446C155.113 107.63 154.883 107.86 154.607 108.136C154.377 108.366 154.147 108.619 153.917 108.895C153.733 109.125 153.595 109.286 153.503 109.378C153.595 109.286 153.756 109.125 153.986 108.895C154.262 108.665 154.515 108.435 154.745 108.205C154.975 107.975 155.182 107.768 155.366 107.584C155.596 107.354 155.734 107.193 155.78 107.101ZM155.435 82.606C155.343 82.606 155.159 82.767 154.883 83.089C154.653 83.411 154.515 83.618 154.469 83.71L154.676 83.848C154.814 83.664 154.952 83.48 155.09 83.296C155.228 83.066 155.343 82.836 155.435 82.606ZM151.64 106.411C152.422 105.675 153.112 104.893 153.71 104.065L151.64 106.411ZM160.541 79.639C160.541 79.547 160.587 79.455 160.679 79.363C160.771 79.225 160.817 79.11 160.817 79.018H160.955C160.955 79.386 160.817 79.662 160.541 79.846V79.639ZM134.528 106.894H134.459L134.183 107.377L134.39 107.653L134.597 107.17L134.528 106.894ZM155.711 82.468L155.918 82.33L156.125 81.916C155.803 81.916 155.642 82.054 155.642 82.33L155.711 82.468ZM150.26 83.641L149.984 84.124L150.053 84.193L150.26 84.055L150.536 83.572L150.26 83.641ZM132.596 108.274L132.872 107.791L132.665 107.653L132.458 108.136L132.596 108.274ZM160.541 76.189L160.886 76.12L160.955 75.775L160.679 75.844L160.541 76.189ZM155.159 75.637L155.366 75.775L155.435 75.706L155.297 75.43L154.952 75.292L155.159 75.637ZM159.092 73.084L159.299 73.153L159.575 72.877L159.437 72.739L159.092 73.084ZM127.145 112.276L127.007 111.931C126.961 111.931 126.938 111.977 126.938 112.069C126.938 112.161 126.961 112.276 127.007 112.414C127.053 112.552 127.099 112.667 127.145 112.759V112.276ZM161.507 71.773L161.645 71.911L161.99 71.704L161.714 71.566L161.507 71.773ZM149.087 61.699L149.432 61.837L149.639 61.768L149.294 61.561L149.087 61.699ZM156.953 77.224V77.017C156.953 76.925 156.953 76.879 156.953 76.879C156.999 76.833 157.022 76.764 157.022 76.672L157.16 77.362L156.953 77.224ZM133.838 108.757L134.114 108.481H133.838L133.631 108.757H133.838ZM148.328 66.253V66.598L148.535 66.115L148.466 65.908L148.328 66.253ZM154.055 84.193L154.193 84.055L153.986 83.848L153.848 84.055L154.055 84.193ZM153.434 65.011L153.572 65.287L153.641 65.011L153.503 64.735L153.434 65.011ZM154.469 75.913L154.538 76.189L154.883 76.327V76.258L154.469 75.913ZM129.353 109.999L129.215 110.482L129.284 110.965L129.353 109.999ZM159.368 73.498L159.506 73.636L159.644 73.498V73.291L159.368 73.498ZM153.296 61.768L153.503 61.906L153.641 61.837L153.503 61.63L153.296 61.768ZM159.851 76.327L159.92 76.465L160.058 76.258V76.051L159.851 76.327ZM154.883 74.119L154.745 74.257L154.883 74.464L154.952 74.326L154.883 74.119ZM156.539 79.984L156.677 80.191L156.746 79.984L156.608 79.846L156.539 79.984ZM132.113 109.309C132.067 109.401 132.044 109.539 132.044 109.723L132.113 109.309ZM126.455 106.204C126.271 106.388 126.156 106.526 126.11 106.618L126.455 106.204ZM215.998 64.666C216.412 64.574 216.826 64.689 217.24 65.011C217.7 65.287 218.114 65.678 218.482 66.184C218.896 66.644 219.218 67.15 219.448 67.702C219.724 68.208 219.862 68.645 219.862 69.013C219.862 69.151 219.839 69.45 219.793 69.91C219.747 70.324 219.678 70.761 219.586 71.221C219.494 71.635 219.402 72.049 219.31 72.463C219.218 72.831 219.126 73.061 219.034 73.153C218.896 73.659 218.758 74.188 218.62 74.74C218.528 75.246 218.459 75.775 218.413 76.327C217.999 76.971 217.516 78.121 216.964 79.777C216.458 81.433 215.929 83.227 215.377 85.159C214.871 87.091 214.388 88.977 213.928 90.817C213.514 92.611 213.192 93.968 212.962 94.888C213.514 94.014 213.928 93.094 214.204 92.128C214.526 91.162 214.802 90.196 215.032 89.23C215.262 88.264 215.492 87.298 215.722 86.332C215.952 85.32 216.251 84.354 216.619 83.434C216.803 83.066 216.941 82.675 217.033 82.261C217.125 81.801 217.286 81.387 217.516 81.019L217.723 79.708L217.999 79.501V80.191C217.999 81.065 217.861 81.985 217.585 82.951C217.309 83.871 216.987 84.791 216.619 85.711C216.297 86.631 215.998 87.528 215.722 88.402C215.446 89.276 215.308 90.058 215.308 90.748V90.817C215.814 90.081 216.527 89.023 217.447 87.643C218.367 86.263 219.402 84.768 220.552 83.158C221.702 81.548 222.921 79.915 224.209 78.259C225.543 76.557 226.831 75.039 228.073 73.705C229.315 72.325 230.511 71.198 231.661 70.324C232.811 69.45 233.8 69.013 234.628 69.013C234.95 69.013 235.111 69.151 235.111 69.427L235.732 69.634C236.054 69.588 236.422 69.726 236.836 70.048C237.25 70.37 237.641 70.761 238.009 71.221C238.377 71.681 238.676 72.164 238.906 72.67C239.136 73.176 239.251 73.59 239.251 73.912C239.251 74.786 239.09 75.798 238.768 76.948C238.492 78.098 238.147 79.271 237.733 80.467C237.319 81.617 236.882 82.767 236.422 83.917C236.008 85.021 235.64 86.01 235.318 86.884C234.812 88.218 234.191 90.035 233.455 92.335C232.719 94.589 231.983 96.958 231.247 99.442C230.511 101.926 229.89 104.318 229.384 106.618C228.878 108.872 228.625 110.643 228.625 111.931C228.625 112.621 228.694 113.311 228.832 114.001C228.878 113.403 228.947 112.69 229.039 111.862C229.131 110.988 229.246 110.137 229.384 109.309C229.522 108.435 229.706 107.607 229.936 106.825C230.166 105.997 230.419 105.33 230.695 104.824C230.741 104.226 230.856 103.513 231.04 102.685C231.224 101.857 231.431 101.029 231.661 100.201C231.891 99.327 232.144 98.499 232.42 97.717C232.696 96.935 232.972 96.268 233.248 95.716L233.317 95.854C233.179 97.28 232.903 98.706 232.489 100.132C232.075 101.512 231.638 102.915 231.178 104.341C230.718 105.721 230.304 107.124 229.936 108.55C229.568 109.93 229.384 111.31 229.384 112.69C229.384 113.702 229.798 114.668 230.626 115.588C230.028 116.232 229.269 116.807 228.349 117.313C227.475 117.819 226.578 118.072 225.658 118.072C224.692 118.072 223.91 117.819 223.312 117.313C222.76 116.853 222.323 116.255 222.001 115.519C221.725 114.829 221.518 114.047 221.38 113.173C221.288 112.345 221.242 111.563 221.242 110.827C221.242 105.905 221.932 101.052 223.312 96.268C224.692 91.438 226.325 86.746 228.211 82.192C227.935 82.192 227.544 82.514 227.038 83.158C226.532 83.756 225.934 84.538 225.244 85.504C224.6 86.424 223.91 87.459 223.174 88.609C222.484 89.713 221.794 90.794 221.104 91.852C220.46 92.91 219.862 93.853 219.31 94.681C218.758 95.509 218.344 96.084 218.068 96.406C218.16 95.854 218.482 95.118 219.034 94.198C219.586 93.232 220.253 92.197 221.035 91.093C221.817 89.989 222.645 88.862 223.519 87.712C224.439 86.516 225.267 85.412 226.003 84.4C226.785 83.388 227.429 82.514 227.935 81.778C228.487 81.042 228.786 80.536 228.832 80.26C226.072 83.434 223.565 86.792 221.311 90.334C219.103 93.83 216.987 97.395 214.963 101.029L214.618 101.098L213.997 101.581H214.204L214.618 101.788C214.434 102.34 214.204 102.869 213.928 103.375C213.652 103.835 213.422 104.341 213.238 104.893C213.836 104.111 214.342 103.306 214.756 102.478C215.216 101.604 215.699 100.776 216.205 99.994C215.009 102.34 213.744 104.571 212.41 106.687H212.341C212.249 107.009 212.111 107.308 211.927 107.584C211.789 107.86 211.651 108.136 211.513 108.412L211.72 107.86C211.72 107.722 211.674 107.492 211.582 107.17C211.536 106.802 211.467 106.572 211.375 106.48L211.237 106.549C211.237 106.779 211.237 106.986 211.237 107.17C211.283 107.354 211.352 107.561 211.444 107.791L211.168 108.481C211.398 109.217 211.168 109.746 210.478 110.068L210.064 110.482C210.064 110.574 210.018 110.735 209.926 110.965C209.88 111.149 209.788 111.264 209.65 111.31C209.696 111.54 209.535 112 209.167 112.69C208.799 113.426 208.362 114.185 207.856 114.967C207.396 115.749 206.959 116.439 206.545 117.037C206.131 117.681 205.878 118.003 205.786 118.003C205.694 118.003 205.648 117.957 205.648 117.865C205.694 117.773 205.717 117.704 205.717 117.658C205.717 117.566 205.648 117.543 205.51 117.589L204.475 118.969C204.429 118.877 204.383 118.739 204.337 118.555C204.337 118.417 204.291 118.302 204.199 118.21L203.509 119.659L203.233 119.728L203.026 119.659C202.796 119.153 202.658 118.601 202.612 118.003C202.612 117.405 202.612 116.853 202.612 116.347C202.612 114.967 202.727 113.219 202.957 111.103C203.233 108.987 203.601 106.687 204.061 104.203C204.521 101.719 205.027 99.143 205.579 96.475C206.177 93.807 206.798 91.277 207.442 88.885C208.086 86.493 208.73 84.308 209.374 82.33C210.018 80.352 210.639 78.788 211.237 77.638C211.237 77.224 211.398 76.925 211.72 76.741C211.766 76.511 211.789 76.327 211.789 76.189C211.835 76.051 211.858 75.936 211.858 75.844C211.904 75.706 211.973 75.591 212.065 75.499C212.203 75.407 212.387 75.292 212.617 75.154C212.525 74.924 212.433 74.74 212.341 74.602C212.295 74.418 212.272 74.211 212.272 73.981C212.272 73.889 212.295 73.797 212.341 73.705C212.433 73.613 212.525 73.521 212.617 73.429V72.877L212.755 72.532L212.686 72.394C212.456 72.854 212.226 73.291 211.996 73.705C211.812 74.119 211.674 74.579 211.582 75.085L211.789 74.74L212.134 74.878L212.065 75.154C211.789 75.522 211.49 76.028 211.168 76.672C210.892 77.27 210.616 77.914 210.34 78.604C210.064 79.248 209.811 79.892 209.581 80.536C209.351 81.18 209.167 81.732 209.029 82.192L209.305 80.881C209.167 81.019 208.96 81.456 208.684 82.192C208.454 82.928 208.178 83.756 207.856 84.676C207.58 85.596 207.304 86.516 207.028 87.436C206.798 88.31 206.614 88.977 206.476 89.437C206.752 88.655 207.028 87.919 207.304 87.229C207.58 86.493 207.879 85.734 208.201 84.952C207.879 85.964 207.511 87.252 207.097 88.816C206.683 90.334 206.246 91.99 205.786 93.784C205.326 95.532 204.866 97.349 204.406 99.235C203.946 101.121 203.532 102.961 203.164 104.755C202.842 106.503 202.566 108.136 202.336 109.654C202.106 111.172 201.991 112.437 201.991 113.449C201.991 114.001 202.014 114.53 202.06 115.036C202.152 115.588 202.198 116.117 202.198 116.623C202.198 116.669 202.175 116.715 202.129 116.761C202.129 116.807 202.129 116.853 202.129 116.899C202.037 116.899 201.991 116.945 201.991 117.037C201.991 117.221 202.014 117.382 202.06 117.52C202.106 117.704 202.129 117.911 202.129 118.141C202.129 118.371 202.106 118.601 202.06 118.831C202.06 119.107 202.06 119.36 202.06 119.59C201.692 119.544 201.37 119.176 201.094 118.486C200.864 117.842 200.657 117.083 200.473 116.209C200.335 115.381 200.22 114.553 200.128 113.725C200.036 112.943 199.99 112.414 199.99 112.138V111.793C200.588 105.261 201.761 98.867 203.509 92.611C205.303 86.309 207.465 80.145 209.995 74.119V74.05L209.65 74.188L209.719 73.981L210.064 73.36L208.753 74.947L208.96 75.223C208.592 75.223 208.293 75.338 208.063 75.568C207.879 75.798 207.741 76.074 207.649 76.396L208.615 75.43C208.523 75.568 208.362 75.775 208.132 76.051C207.902 76.281 207.649 76.534 207.373 76.81C207.097 77.086 206.821 77.362 206.545 77.638C206.315 77.914 206.131 78.144 205.993 78.328C205.625 78.788 205.073 79.547 204.337 80.605C203.647 81.663 202.865 82.859 201.991 84.193C201.163 85.527 200.289 86.93 199.369 88.402C198.495 89.874 197.69 91.277 196.954 92.611C196.218 93.899 195.597 95.049 195.091 96.061C194.631 97.027 194.378 97.694 194.332 98.062C194.562 97.832 194.746 97.579 194.884 97.303C195.068 96.981 195.252 96.682 195.436 96.406C195.344 96.82 195.114 97.326 194.746 97.924C194.424 98.522 194.148 99.005 193.918 99.373L194.194 98.338C193.688 98.89 193.228 99.626 192.814 100.546C192.4 101.466 192.147 102.294 192.055 103.03L191.848 102.685C191.756 103.099 191.549 103.398 191.227 103.582C191.135 103.996 191.02 104.433 190.882 104.893C190.79 105.353 190.537 105.698 190.123 105.928L190.261 106.204C190.169 106.434 190.054 106.687 189.916 106.963C189.778 107.193 189.594 107.377 189.364 107.515C189.134 107.929 188.881 108.458 188.605 109.102C188.375 109.7 188.122 110.344 187.846 111.034C187.57 111.678 187.271 112.276 186.949 112.828C186.673 113.426 186.374 113.886 186.052 114.208L185.362 114.139C185.224 114.231 185.017 114.369 184.741 114.553C184.511 114.783 184.304 114.898 184.12 114.898L183.223 115.726L182.671 115.588C183.223 111.172 183.89 106.756 184.672 102.34C185.5 97.878 186.535 93.485 187.777 89.161C189.019 84.837 190.491 80.628 192.193 76.534C193.941 72.394 196.034 68.438 198.472 64.666C198.702 64.344 198.955 63.907 199.231 63.355C199.553 62.803 199.898 62.504 200.266 62.458L200.473 63.01L200.404 63.217C200.68 63.217 200.887 63.102 201.025 62.872C201.393 63.194 201.646 63.539 201.784 63.907L202.06 63.838C202.06 63.93 202.083 64.045 202.129 64.183C202.175 64.321 202.198 64.436 202.198 64.528C202.198 64.896 202.129 65.31 201.991 65.77C201.899 66.23 201.807 66.644 201.715 67.012L202.336 65.494C202.336 65.586 202.336 65.678 202.336 65.77C202.382 65.862 202.405 65.954 202.405 66.046C202.405 67.242 202.152 68.668 201.646 70.324C201.14 71.98 200.542 73.682 199.852 75.43C199.162 77.178 198.472 78.903 197.782 80.605C197.138 82.307 196.655 83.825 196.333 85.159C196.747 84.515 197.391 83.549 198.265 82.261C199.185 80.927 200.22 79.478 201.37 77.914C202.52 76.35 203.739 74.763 205.027 73.153C206.315 71.497 207.557 70.002 208.753 68.668C209.995 67.288 211.145 66.184 212.203 65.356C213.261 64.482 214.135 64.045 214.825 64.045C215.101 64.045 215.308 64.16 215.446 64.39L215.998 64.666ZM181.153 114.001C181.153 113.679 181.153 113.38 181.153 113.104C181.199 112.828 181.245 112.552 181.291 112.276C181.613 108.55 182.073 104.778 182.671 100.96C183.315 97.142 184.12 93.37 185.086 89.644C186.052 85.918 187.225 82.284 188.605 78.742C190.031 75.154 191.71 71.727 193.642 68.461C193.826 68.185 194.148 67.702 194.608 67.012C195.068 66.322 195.574 65.609 196.126 64.873C196.678 64.137 197.207 63.493 197.713 62.941C198.265 62.389 198.679 62.113 198.955 62.113C199.047 62.113 199.093 62.159 199.093 62.251C199.139 62.343 199.162 62.435 199.162 62.527V62.665C198.242 64.551 197.207 66.368 196.057 68.116C194.953 69.818 193.941 71.635 193.021 73.567C191.089 77.569 189.479 81.686 188.191 85.918C186.949 90.15 185.822 94.428 184.81 98.752L184.672 98.89C184.718 99.718 184.557 100.707 184.189 101.857C183.821 103.007 183.591 104.065 183.499 105.031C183.315 106.779 183.085 108.527 182.809 110.275C182.533 112.023 182.257 113.771 181.981 115.519C181.613 115.381 181.383 115.174 181.291 114.898C181.199 114.622 181.153 114.323 181.153 114.001ZM215.101 93.439C214.733 93.853 214.411 94.405 214.135 95.095C213.905 95.785 213.721 96.406 213.583 96.958C214.733 95.164 215.837 93.324 216.895 91.438C217.953 89.552 219.08 87.735 220.276 85.987C223.404 81.295 226.923 77.04 230.833 73.222C231.063 72.992 231.293 72.739 231.523 72.463C231.799 72.187 232.052 71.911 232.282 71.635C232.052 71.681 231.615 72.003 230.971 72.601C230.327 73.199 229.637 73.866 228.901 74.602C228.165 75.338 227.475 76.051 226.831 76.741C226.187 77.431 225.796 77.891 225.658 78.121C224.646 78.903 223.795 79.892 223.105 81.088C222.461 82.238 221.679 83.25 220.759 84.124C220.667 84.4 220.483 84.791 220.207 85.297C219.931 85.757 219.586 86.263 219.172 86.815C218.804 87.321 218.436 87.827 218.068 88.333C217.7 88.793 217.424 89.161 217.24 89.437L217.171 89.92C216.849 90.334 216.573 90.794 216.343 91.3C216.113 91.76 215.814 92.174 215.446 92.542L215.101 93.439ZM193.642 92.749C196.31 88.287 199.024 83.94 201.784 79.708C204.59 75.43 207.81 71.428 211.444 67.702C211.168 67.886 210.777 68.185 210.271 68.599C209.811 68.967 209.328 69.381 208.822 69.841C208.362 70.301 207.925 70.761 207.511 71.221C207.097 71.635 206.775 71.98 206.545 72.256C206.545 72.348 206.499 72.486 206.407 72.67C203.923 75.89 201.577 79.11 199.369 82.33C197.161 85.504 195.252 88.977 193.642 92.749ZM233.869 88.264C233.593 88.586 233.248 89.322 232.834 90.472C232.466 91.576 232.052 92.91 231.592 94.474C231.132 95.992 230.672 97.648 230.212 99.442C229.752 101.19 229.338 102.869 228.97 104.479C228.602 106.089 228.303 107.538 228.073 108.826C227.843 110.068 227.728 110.965 227.728 111.517C227.728 111.839 227.728 112.138 227.728 112.414C227.728 112.69 227.751 112.989 227.797 113.311C228.303 110.183 228.855 107.078 229.453 103.996C230.051 100.914 230.856 97.855 231.868 94.819C232.236 93.715 232.627 92.657 233.041 91.645C233.455 90.587 233.731 89.46 233.869 88.264ZM225.589 112.276C225.819 110.804 226.026 109.332 226.21 107.86C226.394 106.342 226.647 104.847 226.969 103.375C227.107 102.685 227.36 101.765 227.728 100.615C228.142 99.419 228.533 98.2 228.901 96.958C229.315 95.716 229.66 94.566 229.936 93.508C230.258 92.404 230.419 91.599 230.419 91.093C230.419 91.001 230.396 90.955 230.35 90.955C230.35 90.909 230.35 90.84 230.35 90.748L230.143 90.817C230.281 90.679 230.35 90.518 230.35 90.334V90.058L230.005 91.024L230.074 91.3L229.66 92.128L229.522 92.197L229.66 92.473C229.522 92.703 229.384 92.933 229.246 93.163C229.108 93.347 228.993 93.554 228.901 93.784L228.97 94.06C228.97 94.106 228.901 94.451 228.763 95.095C228.625 95.739 228.418 96.544 228.142 97.51C227.912 98.476 227.659 99.534 227.383 100.684C227.107 101.834 226.854 102.892 226.624 103.858C226.394 104.824 226.187 105.652 226.003 106.342C225.819 106.986 225.727 107.308 225.727 107.308C225.681 107.952 225.635 108.573 225.589 109.171C225.543 109.769 225.52 110.39 225.52 111.034C225.52 111.264 225.52 111.471 225.52 111.655C225.52 111.839 225.543 112.046 225.589 112.276ZM210.754 98.2C210.892 97.924 211.099 97.372 211.375 96.544C211.697 95.716 212.019 94.75 212.341 93.646C212.663 92.496 213.008 91.277 213.376 89.989C213.744 88.655 214.089 87.39 214.411 86.194C214.733 84.998 215.009 83.917 215.239 82.951C215.469 81.985 215.63 81.295 215.722 80.881C214.526 83.595 213.537 86.447 212.755 89.437C212.019 92.381 211.352 95.302 210.754 98.2ZM194.056 88.954C195.16 86.838 196.08 84.469 196.816 81.847C197.552 79.225 198.311 76.764 199.093 74.464C198.725 75.384 198.265 76.488 197.713 77.776C197.161 79.018 196.632 80.329 196.126 81.709C195.62 83.043 195.16 84.354 194.746 85.642C194.378 86.884 194.148 87.988 194.056 88.954ZM194.125 78.052C195.321 75.936 196.379 73.751 197.299 71.497C198.219 69.243 199.116 66.966 199.99 64.666C198.932 66.874 197.897 69.082 196.885 71.29C195.873 73.498 194.953 75.752 194.125 78.052ZM208.96 94.267C209.098 93.991 209.351 93.255 209.719 92.059C210.133 90.863 210.547 89.575 210.961 88.195C211.375 86.815 211.743 85.573 212.065 84.469C212.433 83.319 212.617 82.675 212.617 82.537V81.985C212.433 82.307 212.134 83.043 211.72 84.193C211.352 85.343 210.961 86.608 210.547 87.988C210.179 89.322 209.834 90.61 209.512 91.852C209.19 93.048 209.006 93.853 208.96 94.267ZM224.416 102.616C224.416 102.064 224.508 101.328 224.692 100.408C224.922 99.488 225.175 98.522 225.451 97.51C225.727 96.498 226.003 95.532 226.279 94.612C226.601 93.692 226.877 92.933 227.107 92.335L227.452 92.128C227.314 91.898 227.245 91.645 227.245 91.369C227.291 91.093 227.36 90.84 227.452 90.61C226.946 91.944 226.509 93.209 226.141 94.405C225.819 95.555 225.497 96.705 225.175 97.855C224.899 99.005 224.623 100.178 224.347 101.374C224.117 102.524 223.841 103.789 223.519 105.169L223.243 106.273V105.997L223.105 105.721C223.013 106.089 222.967 106.388 222.967 106.618C222.967 106.71 222.99 106.756 223.036 106.756C223.036 106.756 223.059 106.733 223.105 106.687L223.45 106.894C223.634 106.434 223.749 106.089 223.795 105.859C223.795 105.905 223.841 105.928 223.933 105.928L223.864 105.652L223.933 105.238L224.14 105.031C224.002 104.893 223.933 104.709 223.933 104.479C223.933 104.203 223.979 103.881 224.071 103.513C224.163 103.145 224.278 102.846 224.416 102.616ZM203.854 81.847C203.578 82.583 203.164 83.411 202.612 84.331C202.06 85.205 201.462 86.125 200.818 87.091C200.22 88.057 199.622 89.023 199.024 89.989C198.426 90.909 197.92 91.76 197.506 92.542C197.46 92.634 197.345 92.864 197.161 93.232C197.023 93.554 196.839 93.922 196.609 94.336C196.425 94.704 196.241 95.049 196.057 95.371C195.873 95.693 195.735 95.877 195.643 95.923C196.885 93.485 198.15 91.093 199.438 88.747C200.772 86.355 202.244 84.055 203.854 81.847ZM237.871 82.468C237.871 82.606 237.779 82.951 237.595 83.503C237.411 84.009 237.204 84.561 236.974 85.159C236.744 85.711 236.514 86.263 236.284 86.815C236.1 87.321 235.962 87.643 235.87 87.781C235.916 88.011 235.87 88.287 235.732 88.609C235.64 88.885 235.502 89.092 235.318 89.23C235.318 89.092 235.295 88.977 235.249 88.885C235.249 88.747 235.249 88.609 235.249 88.471C235.249 88.333 235.364 87.965 235.594 87.367C235.824 86.723 236.077 86.056 236.353 85.366C236.629 84.63 236.882 83.963 237.112 83.365C237.388 82.721 237.572 82.33 237.664 82.192L237.871 82.468ZM219.034 74.464C219.172 74.096 219.31 73.774 219.448 73.498C219.632 73.176 219.724 72.831 219.724 72.463L220 72.394V72.463L219.862 72.67C219.816 73.038 219.724 73.544 219.586 74.188C219.494 74.786 219.356 75.43 219.172 76.12C219.034 76.81 218.873 77.477 218.689 78.121C218.551 78.719 218.413 79.179 218.275 79.501L218.068 79.363L218.206 78.673L218.137 78.604L217.999 78.259C218.045 77.891 218.183 77.339 218.413 76.603C218.643 75.867 218.85 75.338 219.034 75.016L218.896 74.602L219.034 74.464ZM234.973 90.127C235.065 90.357 235.042 90.702 234.904 91.162C234.812 91.576 234.674 92.036 234.49 92.542C234.352 93.002 234.168 93.462 233.938 93.922C233.754 94.336 233.593 94.658 233.455 94.888C233.547 94.06 233.731 93.301 234.007 92.611C234.283 91.921 234.49 91.185 234.628 90.403L234.904 89.989L235.249 89.851L234.973 90.127ZM225.382 83.848C225.796 83.066 226.302 82.399 226.9 81.847C227.544 81.249 228.073 80.559 228.487 79.777C228.257 80.007 227.912 80.375 227.452 80.881C226.992 81.341 226.532 81.847 226.072 82.399C225.612 82.951 225.198 83.48 224.83 83.986C224.508 84.492 224.324 84.883 224.278 85.159C224.554 84.653 224.922 84.216 225.382 83.848ZM195.022 82.33C195.988 80.03 196.908 77.73 197.782 75.43C198.656 73.13 199.507 70.807 200.335 68.461L195.022 82.33ZM224.83 97.441C224.692 97.579 224.554 97.947 224.416 98.545C224.278 99.097 224.14 99.718 224.002 100.408C223.864 101.098 223.749 101.765 223.657 102.409C223.565 103.007 223.496 103.444 223.45 103.72L223.588 103.513C223.68 102.455 223.887 101.443 224.209 100.477C224.531 99.511 224.738 98.499 224.83 97.441ZM228.211 87.505C228.211 87.689 228.257 87.965 228.349 88.333C228.441 88.149 228.487 87.942 228.487 87.712C228.533 87.482 228.556 87.275 228.556 87.091C228.372 87.091 228.372 86.93 228.556 86.608C228.74 86.24 228.855 86.01 228.901 85.918C228.901 85.734 228.878 85.619 228.832 85.573C228.74 85.619 228.625 85.826 228.487 86.194C228.349 86.516 228.257 86.723 228.211 86.815V87.505ZM223.588 108.55C223.588 108.32 223.519 108.09 223.381 107.86C223.565 107.676 223.657 107.515 223.657 107.377L223.174 107.308L222.967 108.55H223.588ZM226.9 90.955C226.44 91.967 226.072 93.002 225.796 94.06C226.026 93.646 226.233 93.186 226.417 92.68C226.601 92.128 226.785 91.622 226.969 91.162L226.9 90.955ZM216.274 99.442C216.412 99.028 216.642 98.591 216.964 98.131C217.286 97.625 217.585 97.188 217.861 96.82C217.631 97.234 217.401 97.694 217.171 98.2C216.941 98.66 216.665 99.074 216.343 99.442H216.274ZM231.385 87.919C231.155 88.057 231.04 88.172 231.04 88.264V88.333L230.764 88.678L230.902 89.368L231.316 88.678L231.385 87.919ZM211.582 100.684C212.042 100.086 212.272 99.419 212.272 98.683L212.341 98.545C212.295 98.545 212.226 98.66 212.134 98.89C212.042 99.074 211.95 99.304 211.858 99.58C211.812 99.81 211.743 100.04 211.651 100.27C211.605 100.5 211.582 100.638 211.582 100.684ZM225.658 94.474C225.474 94.888 225.336 95.302 225.244 95.716C225.198 96.13 225.129 96.544 225.037 96.958C225.267 96.59 225.405 96.199 225.451 95.785C225.497 95.325 225.566 94.888 225.658 94.474ZM229.66 83.158L229.039 84.676L229.177 84.814L229.453 84.469L229.66 83.158ZM238.561 80.26C238.469 80.582 238.308 80.858 238.078 81.088L238.009 80.812C238.055 80.72 238.124 80.582 238.216 80.398C238.308 80.168 238.4 80.053 238.492 80.053L238.561 80.26ZM207.235 77.017C207.281 77.247 207.166 77.477 206.89 77.707C206.66 77.937 206.453 78.121 206.269 78.259C206.407 78.029 206.545 77.822 206.683 77.638C206.821 77.408 207.005 77.201 207.235 77.017ZM209.581 80.467C209.673 80.329 209.719 80.168 209.719 79.984C209.765 79.754 209.834 79.57 209.926 79.432L209.65 79.639L209.305 80.467L209.374 80.536L209.581 80.467ZM216.343 97.372C216.251 97.464 216.113 97.648 215.929 97.924C215.791 98.154 215.722 98.338 215.722 98.476L216.136 98.062L216.343 97.372ZM204.682 79.018L204.613 78.88C204.475 79.064 204.314 79.386 204.13 79.846L204.613 79.432L204.682 79.018ZM205.579 79.432C205.441 79.662 205.303 79.869 205.165 80.053C205.073 80.237 204.912 80.398 204.682 80.536L205.096 79.777L205.579 79.432ZM218.413 93.646L217.861 94.75L218.344 94.336L218.482 93.922L218.413 93.646ZM223.036 110.413C222.944 110.781 222.898 111.103 222.898 111.379V111.448C222.898 111.494 222.921 111.517 222.967 111.517L223.174 111.172L223.036 110.413ZM210.409 77.776L210.064 78.535V78.949L210.409 78.19V77.776ZM209.029 82.192C208.845 83.112 208.569 84.032 208.201 84.952L209.029 82.192ZM239.527 75.499C239.573 75.499 239.596 75.522 239.596 75.568C239.596 75.706 239.55 75.867 239.458 76.051C239.412 76.235 239.343 76.396 239.251 76.534L239.389 75.706L239.527 75.499ZM215.929 80.467C216.067 80.329 216.136 80.122 216.136 79.846C216.136 79.754 216.113 79.708 216.067 79.708C215.975 79.708 215.929 79.777 215.929 79.915C215.929 80.053 215.929 80.145 215.929 80.191V80.467ZM192.4 102.064L193.228 100.684L192.469 102.202L192.4 102.064ZM212.824 105.79C213.008 105.606 213.1 105.353 213.1 105.031L212.824 105.307V105.79ZM229.246 79.018L229.039 78.88L228.763 79.087L229.039 79.294L229.246 79.018ZM212.272 67.288L212.203 67.15C212.065 67.15 211.904 67.242 211.72 67.426L211.927 67.495L212.272 67.288ZM205.786 77.362L205.717 77.431L205.579 77.776L205.648 78.052L205.855 77.707L205.786 77.362ZM231.868 85.918C231.822 85.918 231.776 85.941 231.73 85.987C231.73 85.987 231.707 85.987 231.661 85.987L231.937 86.263L232.144 86.194L232.006 85.918H231.868ZM231.937 79.363L231.73 79.639V79.777C231.914 79.777 232.052 79.685 232.144 79.501L231.937 79.363ZM223.312 104.134C223.266 104.272 223.243 104.456 223.243 104.686C223.243 104.916 223.243 105.1 223.243 105.238C223.335 104.778 223.381 104.41 223.381 104.134H223.312ZM228.418 104.341L228.28 105.238L228.556 104.755L228.418 104.341ZM227.452 88.54C227.452 88.724 227.521 88.816 227.659 88.816L227.728 88.678V88.333L227.452 88.54ZM198.541 88.678C198.265 89.046 198.104 89.345 198.058 89.575L198.265 89.368L198.541 88.678ZM202.474 82.261C202.152 82.583 201.922 82.905 201.784 83.227H201.853L202.474 82.261ZM220.414 90.748C220.552 90.702 220.644 90.61 220.69 90.472L220.552 90.196L220.414 90.472V90.748ZM205.717 79.087L206.131 78.466L206.2 78.604L205.924 79.018L205.717 79.087ZM206.959 76.189L206.407 76.672L206.2 77.155L206.959 76.189ZM230.419 89.782H230.557L230.626 89.92V90.058L230.833 89.782L230.626 89.575L230.419 89.782ZM223.243 86.608L222.829 86.884L222.553 87.436L223.243 86.608ZM233.869 87.781L233.938 87.919L234.214 87.298H234.076L233.869 87.781ZM218.413 69.082L218.344 68.806L218.137 68.599L217.999 68.737L218.413 69.082ZM223.795 109.102L223.588 108.964L223.45 109.24L223.588 109.378L223.795 109.102ZM212.755 67.219L212.824 67.15V66.805L212.617 66.529L212.755 67.219ZM235.732 81.571L235.87 81.916L235.939 81.64L235.801 81.295L235.732 81.571ZM211.03 76.12C211.122 76.028 211.191 75.936 211.237 75.844C211.329 75.706 211.375 75.568 211.375 75.43L211.237 75.568L211.03 76.12ZM239.044 78.19L238.975 78.052L239.044 77.638L239.182 77.845L239.044 78.19ZM222.139 87.781L222.001 88.057L222.07 88.333L222.208 88.057L222.139 87.781ZM214.963 99.649L214.825 99.925V100.201L215.032 99.925L214.963 99.649ZM202.957 81.502C203.049 81.502 203.118 81.456 203.164 81.364C203.21 81.272 203.256 81.18 203.302 81.088L202.888 81.502H202.957ZM226.969 90.334L227.038 90.61L227.176 90.403L227.107 90.127L226.969 90.334ZM219.931 71.014V70.738L220 70.669L220.069 70.738L220.138 71.014H219.931ZM203.716 78.328L203.647 78.19L203.44 78.328V78.397L203.578 78.535L203.716 78.328ZM230.626 81.364L230.833 81.088L230.695 80.95L230.557 81.226L230.626 81.364ZM234.007 80.26L234.076 80.467L234.283 80.398L234.145 80.122L234.007 80.26ZM190.744 104.065L190.813 103.789L190.675 103.582L190.606 103.789L190.744 104.065ZM209.65 73.153L209.581 73.015L209.374 73.153V73.222L209.443 73.36L209.65 73.153ZM204.061 81.502L204.475 80.881L204.268 81.433L204.061 81.502ZM236.077 80.95L236.284 80.743L236.146 80.605L236.008 80.743L236.077 80.95ZM234.283 79.708L234.559 79.501L234.49 79.363L234.283 79.501V79.708ZM233.524 95.233L233.317 95.44L233.248 95.233L233.386 95.095L233.524 95.233ZM238.768 78.88L238.906 79.018L238.768 79.225L238.63 79.018L238.768 78.88ZM219.793 91.714L219.655 91.645L219.517 91.921L219.655 91.99L219.793 91.714ZM214.204 76.534L214.48 76.672V76.534L214.273 76.327L214.204 76.534ZM226.486 79.708L226.831 79.501L226.762 79.363L226.555 79.501L226.486 79.708ZM216.757 96.958L216.619 96.751L216.481 96.958L216.55 97.096L216.757 96.958ZM217.654 95.302L217.102 96.061L217.378 95.854L217.654 95.302ZM233.248 81.778L233.386 81.916L233.593 81.778L233.386 81.64L233.248 81.778ZM209.098 73.498L208.891 73.636V73.843L209.167 73.636L209.098 73.498ZM188.743 108.757C188.743 108.619 188.674 108.55 188.536 108.55L188.467 108.688L188.605 108.826L188.743 108.757ZM192.331 100.477L192.124 100.753L192.262 100.822L192.4 100.615L192.331 100.477ZM191.158 103.306L190.882 103.168L190.744 103.237L190.882 103.375L191.158 103.306ZM210.409 72.187L210.34 71.98L210.133 72.256L210.271 72.325L210.409 72.187ZM218.896 67.081L218.827 66.874L218.965 66.805L219.103 67.012L218.896 67.081ZM229.108 86.47H229.039L228.763 86.677L228.97 86.746L229.108 86.47ZM238.354 73.705H238.423C238.561 73.705 238.699 73.59 238.837 73.36L238.354 73.705ZM207.235 75.706L206.959 75.844L207.028 75.982L207.235 75.844V75.706ZM191.572 103.858L191.434 103.72L191.572 103.582L191.71 103.789L191.572 103.858ZM216.343 70.531L216.205 70.6L216.412 70.738H216.55L216.412 70.531H216.343ZM199.438 86.953L199.3 87.16L199.369 87.298L199.507 87.16L199.438 86.953ZM227.797 87.781L227.866 87.988L228.004 87.781L227.866 87.643L227.797 87.781ZM212.824 81.295L212.962 81.433H213.1L213.031 81.226L212.824 81.295ZM210.961 107.446L210.892 107.308L210.754 107.515L210.823 107.653L210.961 107.446ZM195.643 93.922L195.505 94.129V94.405L195.643 94.129V93.922ZM230.005 83.641L230.143 83.779H230.281L230.212 83.572L230.005 83.641ZM231.247 79.708V79.57L230.971 79.777L231.109 79.846L231.247 79.708ZM230.212 82.054V81.985C230.12 82.169 230.074 82.307 230.074 82.399C230.074 82.445 230.097 82.468 230.143 82.468L230.212 82.054ZM217.378 92.887L217.309 92.749L217.171 92.956V93.094L217.378 92.887ZM207.787 75.016V74.809L207.58 75.085L207.649 75.154L207.787 75.016ZM203.854 80.191L203.509 80.743L203.785 80.467L203.854 80.191ZM193.642 98.476L193.504 98.269L193.366 98.338L193.504 98.476H193.642ZM209.995 72.808L209.857 72.601L209.719 72.67L209.857 72.808H209.995ZM200.197 85.504C200.197 85.55 200.174 85.642 200.128 85.78C200.128 85.872 200.174 85.918 200.266 85.918L200.197 85.504ZM194.056 97.096L193.918 97.234L193.987 97.441C193.987 97.395 193.987 97.372 193.987 97.372C194.033 97.326 194.056 97.28 194.056 97.234V97.096ZM210.961 76.534L210.892 76.465L210.754 76.741H210.823L210.961 76.534ZM235.87 82.882V82.675L235.732 82.813L235.801 82.951L235.87 82.882ZM201.922 116.071V115.795L201.784 115.657L201.922 116.071ZM220 71.428C220.092 71.428 220.115 71.474 220.069 71.566C220.069 71.658 220.069 71.727 220.069 71.773C220.023 71.681 220 71.566 220 71.428ZM231.937 78.052L231.523 78.466H231.592L231.937 78.052ZM218.482 76.741C218.482 76.925 218.505 77.063 218.551 77.155L218.482 76.741ZM215.446 95.992C215.262 96.176 215.147 96.314 215.101 96.406L215.446 95.992ZM212.41 106.411C212.364 106.503 212.341 106.595 212.341 106.687C212.387 106.641 212.41 106.549 212.41 106.411ZM261.905 89.506C261.905 90.38 261.652 91.346 261.146 92.404C260.64 93.462 259.996 94.497 259.214 95.509C258.478 96.521 257.673 97.441 256.799 98.269C255.925 99.097 255.12 99.718 254.384 100.132L254.039 100.546C254.315 100.454 254.683 100.247 255.143 99.925C255.649 99.557 256.132 99.166 256.592 98.752C257.098 98.292 257.558 97.855 257.972 97.441C258.386 97.027 258.708 96.682 258.938 96.406L259.49 96.199C258.984 96.705 258.271 97.372 257.351 98.2C256.477 98.982 255.511 99.764 254.453 100.546C253.395 101.282 252.36 101.926 251.348 102.478C250.336 103.03 249.485 103.306 248.795 103.306H248.45C248.174 103.444 247.76 103.605 247.208 103.789C246.702 103.927 246.288 103.996 245.966 103.996C245.736 103.996 245.506 103.973 245.276 103.927C245.092 103.835 244.885 103.812 244.655 103.858C244.563 104.456 244.448 105.054 244.31 105.652C244.218 106.25 244.172 106.825 244.172 107.377C244.172 107.607 244.172 107.883 244.172 108.205C244.218 108.527 244.287 108.849 244.379 109.171C244.517 109.447 244.655 109.7 244.793 109.93C244.977 110.16 245.207 110.275 245.483 110.275C246.587 110.275 247.576 110.114 248.45 109.792C249.37 109.424 250.244 108.987 251.072 108.481C251.9 107.975 252.705 107.446 253.487 106.894C254.315 106.296 255.189 105.744 256.109 105.238C255.741 105.882 255.258 106.457 254.66 106.963C254.062 107.469 253.441 107.952 252.797 108.412C253.533 108.136 254.2 107.699 254.798 107.101C255.396 106.457 256.086 105.974 256.868 105.652L256.592 106.066C256.776 106.02 257.029 105.997 257.351 105.997L257.282 106.411L257.42 106.618C256.776 107.262 256.132 107.929 255.488 108.619C254.844 109.263 254.177 109.884 253.487 110.482L253.694 110.344C253.418 110.804 252.981 111.287 252.383 111.793C251.785 112.253 251.141 112.69 250.451 113.104C249.761 113.518 249.048 113.863 248.312 114.139C247.622 114.415 247.001 114.553 246.449 114.553C244.793 114.553 243.298 114.231 241.964 113.587C240.63 112.989 239.48 112.184 238.514 111.172C237.548 110.114 236.789 108.895 236.237 107.515C235.731 106.089 235.478 104.571 235.478 102.961C235.478 100.845 236.007 98.476 237.065 95.854C238.123 93.232 239.503 90.771 241.205 88.471C242.953 86.171 244.931 84.239 247.139 82.675C249.347 81.111 251.624 80.329 253.97 80.329C255.12 80.329 256.178 80.605 257.144 81.157C258.11 81.709 258.938 82.422 259.628 83.296C260.364 84.17 260.916 85.159 261.284 86.263C261.698 87.367 261.905 88.448 261.905 89.506ZM246.518 98.821C247.392 98.361 248.45 97.671 249.692 96.751C250.98 95.785 252.199 94.75 253.349 93.646C254.499 92.496 255.465 91.3 256.247 90.058C257.075 88.816 257.489 87.643 257.489 86.539C257.489 86.263 257.374 86.125 257.144 86.125C256.27 86.125 255.281 86.654 254.177 87.712C253.119 88.77 252.084 90.012 251.072 91.438C250.06 92.818 249.14 94.221 248.312 95.647C247.484 97.027 246.886 98.085 246.518 98.821ZM244.379 88.195C245.483 87.183 246.633 86.286 247.829 85.504C249.071 84.676 250.244 83.756 251.348 82.744C251.026 82.836 250.727 82.836 250.451 82.744L250.037 82.882C249.669 83.204 249.209 83.595 248.657 84.055C248.105 84.469 247.53 84.929 246.932 85.435C246.334 85.895 245.782 86.355 245.276 86.815C244.816 87.275 244.517 87.712 244.379 88.126V88.195ZM248.933 99.028C249.991 98.522 251.141 97.763 252.383 96.751C253.671 95.693 254.637 94.681 255.281 93.715C254.913 93.807 254.545 93.968 254.177 94.198C253.855 94.428 253.625 94.727 253.487 95.095C252.751 95.831 251.969 96.475 251.141 97.027C250.313 97.579 249.577 98.246 248.933 99.028ZM255.557 86.194C255.281 86.286 254.844 86.539 254.246 86.953C253.694 87.321 253.119 87.781 252.521 88.333C251.923 88.839 251.394 89.345 250.934 89.851C250.474 90.311 250.221 90.679 250.175 90.955L250.244 91.024C251.118 90.15 251.992 89.345 252.866 88.609C253.786 87.827 254.683 87.022 255.557 86.194ZM253.832 85.918C253.556 86.056 253.211 86.332 252.797 86.746C252.383 87.114 251.946 87.528 251.486 87.988C251.072 88.402 250.658 88.839 250.244 89.299C249.876 89.713 249.577 90.058 249.347 90.334C250.129 89.598 250.888 88.885 251.624 88.195C252.36 87.459 253.096 86.7 253.832 85.918ZM249.554 91.99C249.416 92.128 249.232 92.358 249.002 92.68C248.772 93.002 248.519 93.324 248.243 93.646C248.013 93.968 247.806 94.29 247.622 94.612C247.438 94.934 247.346 95.164 247.346 95.302H247.415C247.783 94.796 248.174 94.267 248.588 93.715C249.002 93.163 249.324 92.588 249.554 91.99ZM247.898 88.195C248.312 88.011 248.795 87.643 249.347 87.091C249.945 86.539 250.405 86.079 250.727 85.711C250.221 86.079 249.715 86.47 249.209 86.884C248.703 87.252 248.266 87.689 247.898 88.195ZM257.765 96.268C257.673 96.314 257.466 96.475 257.144 96.751C256.822 97.027 256.477 97.326 256.109 97.648C255.741 97.97 255.419 98.269 255.143 98.545C254.867 98.821 254.729 98.959 254.729 98.959C254.867 98.959 255.074 98.844 255.35 98.614C255.672 98.384 255.994 98.108 256.316 97.786C256.638 97.464 256.937 97.165 257.213 96.889C257.489 96.613 257.673 96.406 257.765 96.268ZM253.487 97.786C254.131 97.372 254.729 96.912 255.281 96.406C255.833 95.854 256.385 95.325 256.937 94.819L253.487 97.786ZM255.833 92.818L255.143 93.439C255.281 93.439 255.396 93.416 255.488 93.37C255.58 93.278 255.672 93.209 255.764 93.163L255.902 93.232H255.971L256.04 93.025L255.833 92.818ZM246.173 85.435C245.943 85.665 245.713 85.895 245.483 86.125C245.253 86.309 245.023 86.539 244.793 86.815C245.023 86.585 245.253 86.378 245.483 86.194C245.713 85.964 245.943 85.711 246.173 85.435ZM259.973 95.302C259.973 95.21 260.065 95.049 260.249 94.819C260.479 94.589 260.64 94.428 260.732 94.336C260.732 94.474 260.617 94.658 260.387 94.888C260.203 95.072 260.065 95.21 259.973 95.302ZM254.66 94.06L254.315 94.612L253.763 94.888L254.66 94.06ZM297.604 68.944C297.742 69.22 297.811 69.496 297.811 69.772V69.841L296.983 70.945L297.535 70.876C297.351 71.336 297.259 71.796 297.259 72.256C297.305 72.716 297.236 73.176 297.052 73.636C296.96 73.866 296.822 74.234 296.638 74.74C296.454 75.2 296.27 75.706 296.086 76.258C295.948 76.81 295.81 77.339 295.672 77.845C295.534 78.305 295.465 78.627 295.465 78.811L295.051 79.225L295.189 79.432C294.453 81.824 293.602 84.193 292.636 86.539C291.67 88.839 290.704 91.162 289.738 93.508C288.818 95.808 287.967 98.154 287.185 100.546C286.403 102.938 285.805 105.376 285.391 107.86L285.322 108.067C285.368 107.975 285.483 107.676 285.667 107.17C285.897 106.618 286.127 105.974 286.357 105.238C286.633 104.456 286.932 103.628 287.254 102.754C287.576 101.88 287.852 101.075 288.082 100.339C288.358 99.603 288.565 98.982 288.703 98.476C288.887 97.97 288.979 97.694 288.979 97.648L289.255 97.303C289.393 96.659 289.623 96.084 289.945 95.578C290.267 95.072 290.497 94.497 290.635 93.853C290.727 93.439 290.911 92.772 291.187 91.852C291.509 90.886 291.831 89.897 292.153 88.885C292.521 87.873 292.866 86.93 293.188 86.056C293.556 85.182 293.855 84.607 294.085 84.331L294.154 83.986C294.062 83.71 294.108 83.434 294.292 83.158C294.476 82.836 294.683 82.606 294.913 82.468C294.959 82.698 294.913 82.905 294.775 83.089C294.683 83.273 294.591 83.48 294.499 83.71C294.545 84.124 294.361 84.929 293.947 86.125C293.579 87.321 293.073 88.747 292.429 90.403C291.785 92.013 291.095 93.761 290.359 95.647C289.623 97.533 288.933 99.396 288.289 101.236C287.645 103.03 287.093 104.732 286.633 106.342C286.219 107.906 286.012 109.194 286.012 110.206C286.012 110.298 286.012 110.551 286.012 110.965C286.058 111.379 286.196 111.586 286.426 111.586C286.84 111.586 287.369 111.333 288.013 110.827C288.657 110.275 289.278 109.677 289.876 109.033C290.52 108.343 291.072 107.722 291.532 107.17C292.038 106.618 292.383 106.296 292.567 106.204V106.273C292.521 106.319 292.475 106.411 292.429 106.549C292.429 106.687 292.475 106.756 292.567 106.756C292.659 106.756 292.751 106.664 292.843 106.48C292.981 106.25 293.142 106.135 293.326 106.135C293.51 106.135 293.694 106.227 293.878 106.411C294.108 106.549 294.269 106.687 294.361 106.825L294.154 107.308L293.947 107.446C293.533 108.412 293.004 109.355 292.36 110.275C291.762 111.149 291.072 111.931 290.29 112.621C289.508 113.311 288.634 113.863 287.668 114.277C286.748 114.691 285.713 114.898 284.563 114.898C283.367 114.898 282.424 114.645 281.734 114.139C281.09 113.633 280.561 112.989 280.147 112.207C279.733 111.471 279.365 110.666 279.043 109.792C278.767 108.872 278.399 108.021 277.939 107.239C277.617 107.791 277.226 108.297 276.766 108.757C276.306 109.171 275.823 109.562 275.317 109.93C274.811 110.298 274.305 110.689 273.799 111.103C273.293 111.471 272.833 111.885 272.419 112.345C271.775 112.621 271.016 112.782 270.142 112.828C269.268 112.92 268.486 112.966 267.796 112.966C266.692 112.966 265.657 112.736 264.691 112.276C263.771 111.816 262.989 111.218 262.345 110.482C261.701 109.7 261.195 108.803 260.827 107.791C260.459 106.779 260.275 105.744 260.275 104.686C260.275 102.524 260.873 100.155 262.069 97.579C263.311 94.957 264.875 92.519 266.761 90.265C268.693 87.965 270.832 86.056 273.178 84.538C275.524 82.974 277.847 82.192 280.147 82.192C280.607 82.192 281.251 82.353 282.079 82.675C282.953 82.997 283.597 83.273 284.011 83.503C284.195 82.997 284.517 82.238 284.977 81.226C285.483 80.168 286.058 79.041 286.702 77.845C287.392 76.603 288.128 75.361 288.91 74.119C289.738 72.831 290.543 71.658 291.325 70.6C292.107 69.542 292.866 68.691 293.602 68.047C294.338 67.357 294.982 67.012 295.534 67.012L295.741 67.15C295.419 67.702 295.051 68.093 294.637 68.323L294.223 69.22V68.875C293.901 69.381 293.579 69.864 293.257 70.324C292.935 70.784 292.59 71.244 292.222 71.704C292.314 71.658 292.429 71.635 292.567 71.635C292.751 71.589 292.843 71.635 292.843 71.773L293.533 70.807V70.6L294.085 70.393L296.017 68.461L296.362 69.22L296.914 68.392L297.328 68.116L297.397 68.185L297.19 68.668L297.604 68.944ZM269.659 108.412C270.165 108.366 270.901 107.929 271.867 107.101C272.879 106.273 273.891 105.33 274.903 104.272C275.915 103.214 276.812 102.156 277.594 101.098C278.376 100.04 278.813 99.258 278.905 98.752C278.997 98.2 279.25 97.28 279.664 95.992C280.078 94.704 280.492 93.37 280.906 91.99C281.366 90.61 281.757 89.391 282.079 88.333C282.447 87.275 282.631 86.7 282.631 86.608V86.332C282.217 86.424 281.803 86.539 281.389 86.677C280.975 86.769 280.561 86.838 280.147 86.884C278.721 87.712 277.341 88.931 276.007 90.541C274.719 92.151 273.569 93.945 272.557 95.923C271.591 97.855 270.809 99.833 270.211 101.857C269.613 103.881 269.314 105.698 269.314 107.308C269.314 107.492 269.314 107.699 269.314 107.929C269.36 108.113 269.475 108.274 269.659 108.412ZM284.701 106.48C285.023 105.284 285.414 104.111 285.874 102.961C286.38 101.765 286.863 100.592 287.323 99.442C287.783 98.246 288.197 97.05 288.565 95.854C288.979 94.658 289.255 93.439 289.393 92.197C288.381 94.451 287.415 96.774 286.495 99.166C285.621 101.558 285.023 103.996 284.701 106.48ZM264.346 98.269C264.484 98.039 264.691 97.648 264.967 97.096C265.289 96.498 265.634 95.9 266.002 95.302C266.37 94.704 266.715 94.152 267.037 93.646C267.405 93.14 267.658 92.818 267.796 92.68C267.934 92.358 268.256 91.875 268.762 91.231C269.314 90.587 269.866 89.943 270.418 89.299C271.016 88.655 271.545 88.08 272.005 87.574C272.465 87.022 272.695 86.677 272.695 86.539V86.47C272.327 86.47 271.752 86.907 270.97 87.781C270.188 88.655 269.383 89.644 268.555 90.748C267.727 91.852 266.945 92.933 266.209 93.991C265.519 95.049 265.059 95.785 264.829 96.199V96.061C264.829 95.831 264.852 95.67 264.898 95.578L264.553 95.992L264.484 96.406H264.76C264.668 96.682 264.576 96.958 264.484 97.234C264.392 97.464 264.231 97.671 264.001 97.855L263.932 98.476L264.001 98.683L264.346 98.407V98.269ZM271.039 97.234C270.901 97.372 270.74 97.717 270.556 98.269C270.372 98.821 270.188 99.419 270.004 100.063C269.82 100.661 269.636 101.282 269.452 101.926C269.314 102.524 269.199 102.961 269.107 103.237C269.521 102.455 269.866 101.673 270.142 100.891C270.418 100.063 270.694 99.235 270.97 98.407C271.246 97.579 271.545 96.774 271.867 95.992C272.235 95.21 272.695 94.451 273.247 93.715C273.891 92.887 274.535 92.059 275.179 91.231C275.823 90.403 276.467 89.552 277.111 88.678C276.743 89 276.191 89.529 275.455 90.265C274.765 91.001 274.075 91.806 273.385 92.68C272.741 93.554 272.166 94.428 271.66 95.302C271.2 96.13 270.993 96.774 271.039 97.234ZM267.382 97.303C268.164 96.291 268.877 95.233 269.521 94.129C270.211 93.025 270.855 91.898 271.453 90.748C271.315 90.748 271.016 91.047 270.556 91.645C270.142 92.243 269.705 92.933 269.245 93.715C268.785 94.451 268.371 95.187 268.003 95.923C267.635 96.613 267.428 97.073 267.382 97.303ZM274.765 89.782C274.489 89.782 274.075 90.173 273.523 90.955C273.017 91.691 272.488 92.542 271.936 93.508C271.384 94.428 270.878 95.348 270.418 96.268C269.958 97.142 269.659 97.74 269.521 98.062C269.659 97.924 269.751 97.763 269.797 97.579C269.889 97.395 269.981 97.211 270.073 97.027C270.671 95.739 271.361 94.497 272.143 93.301C272.971 92.059 273.845 90.909 274.765 89.851V89.782ZM295.948 70.6C295.902 70.416 295.902 70.232 295.948 70.048C296.04 69.864 296.132 69.68 296.224 69.496C295.81 69.956 295.419 70.462 295.051 71.014C294.683 71.52 294.499 72.095 294.499 72.739V72.808C294.591 72.67 294.683 72.532 294.775 72.394C294.913 72.21 295.051 72.049 295.189 71.911C295.189 71.819 295.212 71.704 295.258 71.566C295.304 71.428 295.35 71.313 295.396 71.221L295.948 70.6ZM275.524 105.031C276.03 104.525 276.582 103.95 277.18 103.306C277.778 102.662 278.192 102.018 278.422 101.374C278.284 101.466 278.077 101.696 277.801 102.064C277.525 102.386 277.226 102.731 276.904 103.099C276.628 103.467 276.352 103.835 276.076 104.203C275.846 104.571 275.662 104.847 275.524 105.031ZM286.081 84.607L287.047 83.986C286.863 83.802 286.771 83.641 286.771 83.503V83.434L286.15 83.641L285.874 83.917V84.124L285.598 84.538L285.874 84.883L286.081 84.607ZM283.666 90.334C283.85 90.334 284.011 90.288 284.149 90.196C284.333 90.058 284.494 89.943 284.632 89.851L284.218 89.989L283.942 89.713V89.092H283.804L283.735 89.644C283.551 89.828 283.436 90.012 283.39 90.196L283.666 90.334ZM286.495 85.159L286.633 84.814V84.469C286.403 84.699 286.242 84.975 286.15 85.297L286.219 85.711L286.495 85.573V85.159ZM295.879 79.432C295.879 79.662 295.81 79.938 295.672 80.26C295.58 80.536 295.488 80.766 295.396 80.95L295.327 80.674C295.373 80.444 295.442 80.237 295.534 80.053C295.672 79.869 295.787 79.662 295.879 79.432ZM294.844 82.192C294.936 81.916 294.982 81.732 294.982 81.64L295.189 81.364L295.396 81.64C295.396 81.732 295.35 81.847 295.258 81.985C295.166 82.123 295.074 82.192 294.982 82.192H294.844ZM282.217 94.336C282.447 94.106 282.585 93.922 282.631 93.784L282.286 93.715L282.148 93.853L282.217 94.336ZM296.845 67.633L296.569 68.047L295.81 68.254L296.845 67.633ZM283.459 91.024L283.39 90.748C283.298 90.84 283.206 90.932 283.114 91.024C283.068 91.07 283.045 91.139 283.045 91.231L283.114 91.369L283.459 91.024ZM289.255 83.917H289.324L289.669 84.055L289.738 83.986V83.641L289.393 83.779L289.255 83.917ZM293.809 79.156C293.671 79.202 293.602 79.34 293.602 79.57V79.639L293.878 79.363L293.809 79.156ZM266.692 98.89L266.554 98.752L266.347 98.959L266.623 99.166L266.692 98.89ZM263.656 99.166L263.449 99.097L263.38 99.304L263.518 99.58L263.656 99.166ZM282.976 92.335L283.114 91.99L282.976 91.714L282.907 92.128L282.976 92.335ZM283.873 100.063L283.528 100.201L283.597 100.408L283.873 100.201V100.063ZM293.188 70.876L293.326 71.083L293.119 71.221L292.981 71.083L293.188 70.876ZM291.325 79.984L291.187 79.708L291.049 79.846L291.187 80.122L291.325 79.984ZM295.051 77.224L294.844 77.086L294.637 77.293L294.775 77.362L295.051 77.224ZM290.566 82.813L290.083 82.951V83.02L290.29 83.089L290.566 82.813ZM286.495 82.675L286.633 82.813L286.771 82.606L286.702 82.468L286.495 82.606V82.675ZM287.806 87.919L287.599 87.988L288.013 88.126L288.082 88.057V87.988L287.806 87.919ZM287.185 89.092L287.254 89.368L287.392 89.092L287.254 88.885L287.185 89.092ZM296.155 75.361L295.948 75.154L295.81 75.292L295.948 75.43L296.155 75.361ZM296.707 72.049L296.569 72.256L297.052 72.049V71.98L296.707 72.049ZM281.872 94.681L281.734 94.888L281.803 95.026L282.01 94.888L281.872 94.681ZM290.842 88.333L290.911 88.057L290.773 87.919L290.704 88.195L290.842 88.333ZM290.359 82.468L290.566 82.33L290.428 82.123L290.29 82.33L290.359 82.468ZM291.67 78.811L291.394 78.949L291.532 79.087L291.739 78.949L291.67 78.811ZM292.429 77.431V77.224L292.222 77.638L292.291 77.776L292.429 77.431ZM287.461 89.713L287.254 90.058H287.323L287.668 89.644L287.461 89.713ZM284.977 97.027L284.908 96.958L284.701 97.234L284.839 97.303L284.977 97.027ZM265.036 95.371C265.22 95.095 265.312 94.865 265.312 94.681L265.036 95.371ZM293.395 75.223L293.05 75.085L293.395 75.43V75.223ZM295.189 69.91L295.327 70.048L295.396 69.91L295.258 69.703L295.189 69.91ZM289.6 91.438L289.393 91.714L289.462 91.852L289.6 91.576V91.438ZM293.257 80.467C293.349 80.375 293.395 80.306 293.395 80.26L293.257 80.122V80.467ZM286.978 81.502C286.978 81.548 286.955 81.64 286.909 81.778C286.909 81.87 286.955 81.916 287.047 81.916L286.978 81.502ZM288.841 85.159L289.117 85.09C289.071 85.09 289.025 85.09 288.979 85.09C288.979 85.044 288.956 85.021 288.91 85.021C288.91 85.021 288.864 85.044 288.772 85.09L288.841 85.159ZM284.356 98.545L284.287 98.476V98.821L284.356 98.545ZM297.742 70.876H297.535L297.604 70.807L297.742 70.876ZM307.864 90.61C307.726 90.932 307.473 91.599 307.105 92.611C306.783 93.623 306.415 94.819 306.001 96.199C305.633 97.579 305.219 99.051 304.759 100.615C304.345 102.133 303.954 103.582 303.586 104.962C303.218 106.296 302.919 107.469 302.689 108.481C302.459 109.493 302.344 110.16 302.344 110.482C302.344 111.264 302.482 112 302.758 112.69L302.344 112.897L301.93 113.932L300.826 113.863L300.688 113.794L300.067 113.863L300.205 114.07C299.975 114.07 299.745 114.07 299.515 114.07C299.331 114.116 299.124 114.139 298.894 114.139C297.836 114.139 296.893 113.909 296.065 113.449C295.283 113.035 294.616 112.483 294.064 111.793C293.512 111.057 293.098 110.229 292.822 109.309C292.546 108.389 292.408 107.446 292.408 106.48C292.408 105.468 292.569 104.203 292.891 102.685C293.213 101.167 293.65 99.58 294.202 97.924C294.8 96.268 295.467 94.566 296.203 92.818C296.985 91.07 297.813 89.46 298.687 87.988C299.561 86.47 300.458 85.159 301.378 84.055C302.344 82.951 303.287 82.146 304.207 81.64L304.552 82.261C304.552 82.537 304.368 82.767 304 82.951L303.793 83.641L303.586 83.71L302.482 84.952V85.228C302.39 85.458 302.252 85.688 302.068 85.918C301.93 86.102 301.861 86.309 301.861 86.539C301.861 86.585 301.861 86.631 301.861 86.677C301.907 86.677 301.93 86.7 301.93 86.746L302.344 86.953L302.068 86.401L302.137 86.194L302.482 86.056L302.62 86.263V86.608C302.758 86.516 302.827 86.401 302.827 86.263C302.827 86.079 302.827 85.895 302.827 85.711C303.149 85.389 303.471 85.113 303.793 84.883C304.161 84.607 304.483 84.285 304.759 83.917C304.851 83.779 305.058 83.503 305.38 83.089C305.702 82.675 305.955 82.468 306.139 82.468C306.231 82.468 306.277 82.514 306.277 82.606C306.277 82.698 306.254 82.767 306.208 82.813C306.3 83.089 306.346 83.296 306.346 83.434C306.346 83.71 306.208 84.055 305.932 84.469C305.702 84.837 305.564 85.251 305.518 85.711L305.725 85.918L305.794 85.297L306.139 85.021C306.231 84.745 306.369 84.515 306.553 84.331C306.783 84.101 307.013 83.917 307.243 83.779C307.335 83.871 307.427 83.986 307.519 84.124C307.611 84.262 307.657 84.377 307.657 84.469C307.657 84.745 307.634 84.929 307.588 85.021L307.657 85.435L307.933 85.642C307.841 85.872 307.772 86.125 307.726 86.401C307.726 86.677 307.841 86.884 308.071 87.022C308.071 87.068 308.071 87.114 308.071 87.16C308.117 87.206 308.14 87.275 308.14 87.367C308.14 87.505 308.094 87.758 308.002 88.126C307.956 88.448 307.864 88.632 307.726 88.678C307.726 88.77 307.703 88.839 307.657 88.885C307.657 88.885 307.657 88.931 307.657 89.023C307.657 89.161 307.657 89.299 307.657 89.437C307.703 89.529 307.726 89.644 307.726 89.782L307.519 89.989L307.312 89.782C307.22 89.92 307.151 90.15 307.105 90.472C307.059 90.794 307.036 91.047 307.036 91.231L307.174 91.369H307.243C307.473 91.047 307.634 90.679 307.726 90.265L307.864 90.61ZM313.039 70.255C313.545 70.761 313.798 71.382 313.798 72.118C313.798 72.486 313.683 72.946 313.453 73.498C313.269 74.004 312.993 74.372 312.625 74.602C312.717 74.51 312.694 74.533 312.556 74.671C312.418 74.809 312.257 74.993 312.073 75.223C311.889 75.499 311.659 75.844 311.383 76.258C311.153 76.58 310.854 76.856 310.486 77.086C310.118 77.316 309.773 77.546 309.451 77.776L309.175 78.397L308.899 78.259C308.577 78.351 308.347 78.351 308.209 78.259L307.864 78.397C307.45 78.351 306.967 78.19 306.415 77.914C305.909 77.638 305.541 77.316 305.311 76.948V76.465H304.897C304.667 76.649 304.46 76.603 304.276 76.327C304.092 76.051 303.931 75.706 303.793 75.292C303.655 74.832 303.54 74.395 303.448 73.981C303.402 73.521 303.379 73.222 303.379 73.084C303.379 72.394 303.54 71.727 303.862 71.083C304.184 70.439 304.598 69.864 305.104 69.358C305.656 68.806 306.254 68.369 306.898 68.047C307.588 67.725 308.278 67.564 308.968 67.564C309.75 67.564 310.417 67.725 310.969 68.047C311.521 68.323 312.096 68.714 312.694 69.22C312.786 69.358 312.855 69.496 312.901 69.634C312.993 69.772 313.039 69.91 313.039 70.048V70.255ZM303.103 103.306C302.689 103.812 302.39 104.525 302.206 105.445C302.022 106.319 301.884 107.078 301.792 107.722C301.976 107.722 302.068 107.653 302.068 107.515V107.446L301.999 107.101C302.091 106.825 302.183 106.641 302.275 106.549C302.275 106.135 302.39 105.652 302.62 105.1C302.896 104.502 303.08 103.95 303.172 103.444L303.103 103.306ZM308.347 75.361C308.807 75.269 309.221 75.131 309.589 74.947C309.957 74.717 310.233 74.372 310.417 73.912C310.371 73.912 310.325 73.912 310.279 73.912C310.279 73.866 310.256 73.843 310.21 73.843C309.98 73.843 309.658 74.073 309.244 74.533C308.876 74.947 308.577 75.223 308.347 75.361ZM305.587 70.738C305.817 70.6 306.254 70.37 306.898 70.048C307.542 69.68 307.91 69.404 308.002 69.22L307.933 69.082C307.013 69.312 306.231 69.864 305.587 70.738ZM305.242 97.096C305.15 97.096 305.035 97.211 304.897 97.441C304.805 97.671 304.713 97.924 304.621 98.2C304.529 98.476 304.437 98.752 304.345 99.028C304.253 99.258 304.207 99.419 304.207 99.511V99.649C304.299 99.419 304.391 99.189 304.483 98.959C304.621 98.729 304.736 98.499 304.828 98.269L305.173 97.855L305.242 97.096ZM307.864 89.713C308.14 89.345 308.278 88.977 308.278 88.609L308.416 88.471C308.508 88.655 308.554 88.839 308.554 89.023C308.554 89.069 308.531 89.138 308.485 89.23C308.439 89.322 308.416 89.391 308.416 89.437L307.864 89.713ZM311.935 71.221H311.452L311.383 71.29L311.245 71.773L311.314 72.049L311.452 71.911L311.521 71.566H311.935V71.221ZM307.036 92.404C306.898 92.404 306.783 92.496 306.691 92.68C306.645 92.864 306.599 93.002 306.553 93.094L306.76 93.646L306.829 93.508L306.76 93.232C306.852 92.91 306.967 92.68 307.105 92.542L307.036 92.404ZM302.62 85.159C302.62 84.975 302.735 84.768 302.965 84.538C303.195 84.308 303.356 84.124 303.448 83.986C303.448 84.124 303.333 84.354 303.103 84.676C302.919 84.998 302.758 85.159 302.62 85.159ZM308.071 70.738C307.841 70.738 307.588 70.899 307.312 71.221C307.082 71.543 306.898 71.773 306.76 71.911C306.99 71.727 307.197 71.543 307.381 71.359C307.611 71.175 307.841 70.968 308.071 70.738ZM311.797 76.12C311.475 76.718 311.015 77.201 310.417 77.569L311.797 76.12ZM308.14 86.056L308.071 85.435L308.347 85.711L308.071 86.608L308.002 86.401L308.14 86.056ZM310.279 76.81C310.463 76.672 310.647 76.534 310.831 76.396C311.015 76.258 311.153 76.097 311.245 75.913L310.21 76.741L310.279 76.81ZM305.794 96.751L305.518 96.13L305.38 96.268L305.449 96.613L305.794 96.751ZM304.069 100.27V100.201L303.793 100.753V100.96L304 100.822L304.069 100.27ZM305.587 95.371L305.656 95.578L305.863 95.371L305.725 95.095L305.587 95.371ZM306.277 94.336L306.001 94.819L306.07 94.888L306.346 94.543L306.277 94.336ZM297.514 91.783L297.169 91.369L297.376 91.99L297.514 91.783ZM303.793 101.236L303.586 101.305L303.448 101.719L303.586 101.65L303.793 101.236ZM302.137 111.103L301.999 110.896L301.93 111.103L301.999 111.379L302.137 111.103ZM299.377 91.576L299.239 91.369L299.032 91.507L299.17 91.645L299.377 91.576ZM306.691 92.059L306.76 92.128L306.967 91.99L306.829 91.783L306.691 92.059ZM303.31 102.616L303.241 102.478L303.103 102.823L303.172 102.961L303.31 102.616ZM308.623 72.118H308.416L308.209 72.325L308.278 72.394L308.623 72.118ZM308.761 71.773C308.761 71.865 308.807 71.911 308.899 71.911L308.968 71.842L308.899 71.566L308.761 71.773ZM307.312 85.918L307.381 86.125L307.519 85.918L307.381 85.78L307.312 85.918ZM311.107 68.461L311.383 68.323L311.245 68.254L311.038 68.323L311.107 68.461ZM308.554 88.126L308.485 87.988L308.623 87.781L308.692 87.919L308.554 88.126ZM298.549 93.094L298.342 93.37L298.411 93.508L298.549 93.232V93.094ZM304.966 86.332L304.897 86.539L305.035 86.746L304.966 86.332ZM303.793 88.471V88.609L303.862 88.264L303.793 88.471ZM300.895 88.264L300.826 88.471V88.609L300.895 88.264ZM308.654 106.204C308.654 105.744 308.654 105.284 308.654 104.824C308.7 104.364 308.792 103.927 308.93 103.513C309.666 101.213 310.379 99.005 311.069 96.889C311.759 94.773 312.863 92.726 314.381 90.748C315.163 89.736 316.037 88.77 317.003 87.85C318.015 86.884 319.073 86.033 320.177 85.297C321.327 84.561 322.523 83.963 323.765 83.503C325.053 83.043 326.364 82.813 327.698 82.813C329.354 82.813 330.619 83.227 331.493 84.055C332.413 84.837 333.264 85.895 334.046 87.229C334.368 87.045 334.736 86.792 335.15 86.47C335.564 86.102 336.001 85.757 336.461 85.435C336.921 85.113 337.358 84.837 337.772 84.607C338.232 84.377 338.646 84.262 339.014 84.262C339.198 84.262 339.29 84.285 339.29 84.331C339.29 84.469 339.244 84.607 339.152 84.745C339.06 84.883 339.014 84.975 339.014 85.021C339.014 85.067 339.014 85.09 339.014 85.09C339.06 85.09 339.083 85.113 339.083 85.159C339.221 85.067 339.428 84.998 339.704 84.952C339.98 84.906 340.21 84.883 340.394 84.883C340.348 84.929 340.279 85.021 340.187 85.159C340.141 85.251 340.118 85.32 340.118 85.366C340.118 85.458 340.141 85.504 340.187 85.504C340.233 85.504 340.256 85.504 340.256 85.504C340.302 85.458 340.348 85.435 340.394 85.435L341.084 85.711L341.222 86.332C340.992 86.93 340.739 87.505 340.463 88.057C340.187 88.609 339.911 89.161 339.635 89.713L339.911 89.437C339.497 90.909 338.876 92.588 338.048 94.474C337.22 96.314 336.392 98.2 335.564 100.132C334.736 102.064 334 103.95 333.356 105.79C332.758 107.584 332.459 109.171 332.459 110.551C332.459 111.057 332.528 111.425 332.666 111.655C332.804 111.885 332.942 112.069 333.08 112.207C333.218 112.391 333.356 112.529 333.494 112.621C333.632 112.759 333.701 112.966 333.701 113.242C333.149 113.84 332.436 114.231 331.562 114.415C330.688 114.599 329.86 114.691 329.078 114.691C328.158 114.691 327.422 114.484 326.87 114.07C326.318 113.656 325.881 113.127 325.559 112.483C325.237 111.839 325.03 111.126 324.938 110.344C324.846 109.562 324.8 108.803 324.8 108.067C324.8 107.699 324.8 107.377 324.8 107.101C324.8 106.779 324.823 106.434 324.869 106.066C324.317 106.618 323.673 107.285 322.937 108.067C322.247 108.849 321.488 109.631 320.66 110.413C319.878 111.149 319.05 111.77 318.176 112.276C317.348 112.828 316.543 113.104 315.761 113.104C314.795 113.104 313.967 113.058 313.277 112.966C312.633 112.874 312.058 112.667 311.552 112.345C311.046 112.069 310.563 111.678 310.103 111.172C309.689 110.62 309.252 109.93 308.792 109.102C308.746 108.596 308.7 108.113 308.654 107.653C308.654 107.193 308.654 106.71 308.654 106.204ZM330.458 90.058C329.216 90.058 328.02 90.564 326.87 91.576C325.72 92.542 324.616 93.715 323.558 95.095C322.5 96.429 321.511 97.786 320.591 99.166C319.671 100.546 318.82 101.65 318.038 102.478C317.9 102.846 317.716 103.283 317.486 103.789C317.256 104.249 317.026 104.755 316.796 105.307C316.566 105.813 316.359 106.319 316.175 106.825C315.991 107.285 315.899 107.676 315.899 107.998V108.067C316.313 108.021 316.98 107.63 317.9 106.894C318.82 106.158 319.832 105.215 320.936 104.065C322.086 102.915 323.259 101.65 324.455 100.27C325.651 98.89 326.732 97.556 327.698 96.268C328.71 94.934 329.538 93.761 330.182 92.749C330.826 91.691 331.148 90.932 331.148 90.472C331.148 90.242 331.056 90.127 330.872 90.127C330.734 90.081 330.596 90.058 330.458 90.058ZM331.907 110.482C332.827 106.894 334 103.398 335.426 99.994C336.898 96.59 338.301 93.163 339.635 89.713C339.129 90.771 338.416 92.243 337.496 94.129C336.622 95.969 335.748 97.901 334.874 99.925C334.046 101.903 333.31 103.835 332.666 105.721C332.068 107.561 331.769 109.033 331.769 110.137V110.551L331.907 110.482ZM318.797 107.515C318.935 107.515 319.234 107.308 319.694 106.894C320.154 106.48 320.683 105.974 321.281 105.376C321.879 104.732 322.523 104.065 323.213 103.375C323.903 102.639 324.524 101.949 325.076 101.305C325.628 100.615 326.088 100.04 326.456 99.58C326.87 99.074 327.1 98.729 327.146 98.545L327.077 98.476C326.525 98.936 325.881 99.557 325.145 100.339C324.409 101.075 323.65 101.88 322.868 102.754C322.132 103.628 321.396 104.502 320.66 105.376C319.924 106.204 319.303 106.917 318.797 107.515ZM329.492 89.644C328.066 90.15 326.824 90.794 325.766 91.576C324.708 92.312 323.742 93.163 322.868 94.129C322.04 95.095 321.281 96.153 320.591 97.303C319.901 98.407 319.211 99.58 318.521 100.822C318.843 100.362 319.119 99.902 319.349 99.442C319.625 98.936 319.924 98.453 320.246 97.993C321.028 96.843 321.741 95.9 322.385 95.164C323.029 94.428 323.696 93.784 324.386 93.232C325.076 92.68 325.812 92.151 326.594 91.645C327.422 91.093 328.388 90.426 329.492 89.644ZM325.076 85.297C324.478 85.297 323.811 85.504 323.075 85.918C322.339 86.286 321.603 86.746 320.867 87.298C320.131 87.85 319.441 88.448 318.797 89.092C318.199 89.69 317.739 90.219 317.417 90.679C317.555 90.633 317.785 90.472 318.107 90.196C318.429 89.92 318.774 89.621 319.142 89.299C319.51 88.977 319.878 88.655 320.246 88.333C320.614 88.011 320.913 87.781 321.143 87.643C321.327 87.551 321.626 87.413 322.04 87.229C322.454 86.999 322.868 86.769 323.282 86.539C323.696 86.309 324.064 86.079 324.386 85.849C324.754 85.619 324.984 85.435 325.076 85.297ZM320.315 95.578C320.453 95.486 320.568 95.394 320.66 95.302C320.752 95.164 320.844 95.026 320.936 94.888C321.856 93.784 322.914 92.818 324.11 91.99C325.352 91.162 326.456 90.219 327.422 89.161C326.916 89.207 326.318 89.506 325.628 90.058C324.938 90.564 324.248 91.162 323.558 91.852C322.868 92.542 322.224 93.232 321.626 93.922C321.028 94.612 320.591 95.164 320.315 95.578ZM330.872 110.482C331.378 108.228 331.999 106.02 332.735 103.858C333.471 101.65 334.23 99.442 335.012 97.234C334.092 99.396 333.241 101.558 332.459 103.72C331.723 105.882 331.194 108.136 330.872 110.482ZM333.563 95.233C333.149 96.015 332.689 96.981 332.183 98.131C331.677 99.235 331.171 100.408 330.665 101.65C330.205 102.846 329.814 104.042 329.492 105.238C329.17 106.388 329.009 107.377 329.009 108.205V108.55C329.147 108.274 329.216 107.998 329.216 107.722C329.262 107.4 329.331 107.078 329.423 106.756C329.791 104.778 330.366 102.823 331.148 100.891C331.976 98.959 332.781 97.073 333.563 95.233ZM338.255 85.504C337.979 85.55 337.657 85.734 337.289 86.056C336.967 86.332 336.622 86.677 336.254 87.091C335.932 87.459 335.61 87.85 335.288 88.264C335.012 88.678 334.782 88.977 334.598 89.161H334.943C335.495 88.563 336.07 87.988 336.668 87.436C337.266 86.838 337.795 86.194 338.255 85.504ZM320.108 91.852C320.246 91.806 320.499 91.645 320.867 91.369C321.235 91.047 321.626 90.725 322.04 90.403C322.454 90.035 322.845 89.69 323.213 89.368C323.581 89.046 323.88 88.793 324.11 88.609C323.328 88.977 322.615 89.46 321.971 90.058C321.327 90.61 320.706 91.208 320.108 91.852ZM315.83 106.273C316.198 105.905 316.474 105.422 316.658 104.824C316.842 104.226 317.026 103.674 317.21 103.168L315.899 105.238L315.83 106.273ZM327.905 102.34C327.675 102.938 327.468 103.536 327.284 104.134C327.146 104.686 327.031 105.284 326.939 105.928C327.261 105.376 327.468 104.801 327.56 104.203C327.698 103.559 327.859 102.938 328.043 102.34H327.905ZM325.145 104.272C324.685 104.64 324.271 105.077 323.903 105.583C323.535 106.089 323.167 106.549 322.799 106.963C322.937 106.825 323.121 106.641 323.351 106.411C323.627 106.181 323.88 105.928 324.11 105.652C324.386 105.376 324.616 105.123 324.8 104.893C324.984 104.617 325.099 104.41 325.145 104.272ZM334.943 92.542C335.035 92.496 335.173 92.266 335.357 91.852C335.587 91.438 335.725 91.162 335.771 91.024V90.886C335.449 90.886 335.242 91.116 335.15 91.576C335.058 91.99 334.989 92.312 334.943 92.542ZM332.735 91.852C332.643 91.852 332.505 91.99 332.321 92.266C332.183 92.496 332.022 92.749 331.838 93.025C331.7 93.301 331.562 93.577 331.424 93.853C331.286 94.129 331.194 94.313 331.148 94.405C331.378 94.129 331.677 93.715 332.045 93.163C332.459 92.565 332.689 92.128 332.735 91.852ZM324.938 105.445C324.892 105.445 324.708 105.629 324.386 105.997C324.064 106.319 323.696 106.71 323.282 107.17C322.914 107.584 322.523 108.021 322.109 108.481C321.741 108.941 321.442 109.286 321.212 109.516C321.856 108.872 322.477 108.228 323.075 107.584C323.673 106.894 324.294 106.181 324.938 105.445ZM338.462 87.229C338.37 87.229 338.232 87.367 338.048 87.643C337.864 87.873 337.657 88.149 337.427 88.471C337.243 88.793 337.059 89.115 336.875 89.437C336.691 89.713 336.553 89.92 336.461 90.058C336.599 89.92 336.76 89.713 336.944 89.437C337.174 89.161 337.381 88.885 337.565 88.609C337.795 88.287 337.979 88.011 338.117 87.781C338.301 87.505 338.416 87.321 338.462 87.229ZM341.015 86.263C340.877 86.309 340.624 86.608 340.256 87.16C339.888 87.666 339.658 88.011 339.566 88.195C340.164 87.505 340.647 86.861 341.015 86.263ZM341.084 87.229C340.992 87.413 340.831 87.781 340.601 88.333C340.371 88.885 340.164 89.161 339.98 89.161L341.084 87.229ZM331.769 92.473C331.631 92.611 331.493 92.772 331.355 92.956C331.263 93.094 331.217 93.255 331.217 93.439L331.631 92.956L331.769 92.473ZM319.901 87.574C319.763 87.666 319.487 87.896 319.073 88.264C318.705 88.586 318.521 88.793 318.521 88.885L319.901 87.574ZM333.977 94.612C334.069 94.474 334.138 94.313 334.184 94.129C334.276 93.899 334.322 93.692 334.322 93.508L333.977 94.129V94.612ZM325.49 102.133L325.214 102.271L325.145 102.409L325.352 102.478L325.628 102.271L325.49 102.133ZM316.037 91.921L315.899 92.128L316.037 92.266L316.244 92.128L316.037 91.921ZM336.116 94.681L335.84 95.233L336.047 95.095L336.116 94.681ZM315.347 103.651L315.416 103.858L315.554 103.651L315.485 103.513L315.347 103.651ZM336.392 94.06L336.185 94.336L336.254 94.474L336.392 94.198V94.06ZM328.319 101.236L328.112 101.443L328.043 101.65L328.319 101.236ZM315.692 92.68H315.347L315.278 92.749L315.692 92.68ZM326.732 104.272C326.732 104.456 326.755 104.571 326.801 104.617L326.732 104.272Z" fill="#FFFC00"/>
</svg>
