<svg width="1350" height="328" viewBox="0 0 1350 328" fill="none" xmlns="http://www.w3.org/2000/svg">
<path d="M554.73 158.637H551.327C535.682 158.637 525.849 151.824 519.747 147.686C508.483 154.828 495.421 158.629 482.081 158.637C443.868 158.637 412.656 127.965 412.656 89.9313C412.633 80.8102 414.412 71.7673 417.892 63.3345C421.373 54.9018 426.486 47.2357 432.938 40.7899C439.389 34.3362 447.052 29.2203 455.485 25.7392C463.92 22.2582 472.958 20.4824 482.081 20.5058C519.395 20.5058 551.499 50.4664 551.499 89.0318C551.499 112.5 541.995 124.734 536.973 131.368C541.815 134.958 548.636 135.678 550.787 135.678H554.699L554.73 158.637ZM517.565 117.381C520.975 112.539 526.717 105.897 526.897 89.7514C526.897 63.2016 506.269 43.4652 482.05 43.4652C454.421 43.4652 438.095 66.7922 437.203 88.14C437.123 89.5246 437.242 90.9092 437.555 92.2625C442.318 91.1438 447.198 90.6041 452.09 90.6511H455.68C490.475 90.6511 517.205 117.201 517.205 117.381H517.565ZM455.532 113.626C451.936 113.532 448.354 114.08 444.948 115.238C454.632 130.492 471.138 135.694 481.002 135.694H482.081C491.046 135.694 496.608 133.182 500.199 131.782C481.581 117.913 468.282 113.626 455.532 113.626ZM580.928 23.1969H607.118C621.824 23.1969 636.539 23.1968 648.014 33.421C654.656 39.3427 659.318 49.0662 659.318 58.1795C659.318 74.8651 648.554 81.1387 644.455 83.4699C653.24 86.7006 667.234 94.0539 667.234 116.481C667.234 132.447 658.802 142.296 650.729 148.053C640.685 155.047 625.079 155.946 616.466 155.946H580.928V23.1969ZM605.499 74.826H613.571C619.313 74.826 634.739 74.826 634.739 60.4715C634.739 52.5785 629.717 46.117 615.73 46.117H605.499V74.826ZM605.499 132.948H617.882C622.724 132.948 642.632 132.948 642.632 115.543C642.632 110.161 639.941 97.7853 618.382 97.7853H605.459L605.499 132.948Z" fill="url(#paint0_linear_1282_898)"/>
<path d="M755.472 23.197H789.555L824.898 123.655H825.258L860.24 23.197H894.323V155.946H869.745V56.3882H869.205L835.302 155.946H814.494L780.403 56.3882H780.043V155.946H755.464L755.472 23.197Z" fill="white"/>
<path d="M927.335 23.197H998.732V46.1563H951.906V78.6279H996.752V101.595H951.906V132.987H998.732V155.946H927.335V23.197Z" fill="white"/>
<path d="M1031.73 23.197H1061.88C1094.53 23.197 1108.69 31.9896 1116.41 38.6231C1128.97 49.387 1138.31 69.1312 1138.31 89.9315C1138.31 113.79 1125.93 136.75 1106.56 147.334C1094.36 154.155 1077.32 155.939 1062.43 155.939H1031.75L1031.73 23.197ZM1056.31 132.987H1061.52C1074.81 132.987 1083.42 132.087 1093.81 126.526C1106.9 119.352 1113.72 104.106 1113.72 89.9315C1113.72 77.0164 1108.15 64.8132 1099.55 57.28C1089.32 47.9555 1076.4 46.1563 1060.98 46.1563H1056.28L1056.31 132.987Z" fill="white"/>
<path d="M1169.69 23.197H1194.26V155.946H1169.69V23.197Z" fill="white"/>
<path d="M1274.27 23.197H1293.47L1349.11 155.946H1322.02L1307.85 121.683H1260.3L1246.14 155.946H1219.05L1274.27 23.197ZM1268.53 98.5442H1299.04L1283.97 57.8198H1283.61L1268.53 98.5442Z" fill="white"/>
<path d="M124.985 204.759C127.317 196.986 129.754 189.235 132.301 181.505C132.301 183.173 132.301 184.921 132.301 186.752C125.889 220.02 121.097 253.638 119.826 287.541C119.681 292.362 119.616 297.183 119.692 301.998C119.791 306.794 118.276 311.484 115.384 315.312C112.493 319.141 108.401 321.884 103.761 323.1L103.411 323.188C102.775 312.427 103.836 301.415 105.16 290.759C109.129 261.566 116.626 232.955 124.985 204.759ZM49.9849 318.833L50.1365 318.897C60.6293 266.287 86.0685 216.301 123.913 178.34C126.629 175.694 129.427 173.134 132.301 170.663V168.11C86.8322 197.315 52.7306 244.357 38.9442 296.582C37.7609 300.999 38.233 305.695 40.2616 309.792C42.296 313.887 45.7528 317.102 49.9849 318.833ZM50.2531 198.923C51.1741 198.341 53.6691 196.528 54.6192 196.009C57.9828 193.887 61.7019 191.707 65.182 189.818C81.3992 180.708 98.5842 173.445 116.422 168.162C120.234 167.072 124.082 166.069 127.958 165.207C126.699 165.207 125.207 165.166 123.499 165.148L120.549 165.632C81.0845 172.4 16.0932 191.992 1.55481 233.41V233.486C0.388938 237.139 -0.12987 240.968 0.027522 244.8C0.231549 249.693 0.796938 254.564 1.71797 259.374C5.53619 250.407 10.223 241.834 15.7084 233.777C25.0004 220.156 36.6999 208.345 50.2356 198.923H50.2531ZM63.8296 207.44C73.1624 199.063 83.3754 191.72 94.2879 185.539C105.993 178.614 117.879 171.974 130.144 166.104L131.945 165.276C131.555 165.276 130.844 165.242 129.859 165.224C125.411 166.302 121.021 167.556 116.673 168.972C99.1321 174.771 82.297 182.518 66.482 192.068C63.1068 194.044 59.5218 196.294 56.2748 198.48C55.3713 199.063 53.0104 200.812 52.0952 201.494C40.1567 210.362 29.8038 221.182 21.4736 233.497C19.7248 236.12 17.6438 239.449 16.0524 242.183C15.5802 243.069 14.0645 245.786 13.5923 246.666C12.4498 248.858 11.3597 251.074 10.3338 253.317C7.82714 258.764 6.67292 264.735 6.97022 270.723C7.26751 276.711 9.01053 282.538 12.0418 287.71L12.1467 287.885C21.4212 256.978 39.9235 228.991 63.8121 207.44H63.8296ZM132.307 175.379C132.307 173.904 132.307 172.557 132.307 171.356C129.637 173.824 127.049 176.362 124.536 178.97C94.3812 210.844 73.6695 251.114 61.9817 293.184C59.4751 302.345 57.4581 311.633 55.9367 321.007L56.0883 321.054C57.9595 321.634 59.9298 321.815 61.871 321.585C63.818 321.355 65.6892 320.72 67.3738 319.72C69.0585 318.72 70.5159 317.377 71.6468 315.78C72.7777 314.182 73.5646 312.364 73.9494 310.445C83.6552 262.061 102.146 213.374 132.289 175.361L132.307 175.379ZM138.364 277.293C137.635 275.603 137.005 273.87 136.487 272.105C133.245 261.292 132.948 249.54 132.61 238.336C132.458 233.147 132.377 209.69 132.336 190.739C127.795 222.8 124.816 255.212 125.096 287.588C125.224 295.83 125.609 304.126 126.518 312.327C129.783 309.803 132.692 306.847 135.163 303.543C139.296 297.981 141.686 289.162 140.153 282.213C139.675 280.523 139.075 278.873 138.346 277.276L138.364 277.293ZM132.295 179.395C132.295 178.229 132.295 177.098 132.295 176.032C105.539 212.319 90.4406 256.22 81.5217 300.115C79.8895 308.433 78.4846 316.816 77.3653 325.228H77.5927C82.5185 325.495 87.3569 323.84 91.0876 320.61C94.8242 317.381 97.156 312.829 97.599 307.915C101.19 268.258 118.59 215.887 132.295 179.395ZM132.295 167.602C132.295 166.571 132.295 165.854 132.295 165.51C127.632 167.876 123.003 170.412 118.427 172.983C110.558 177.448 102.84 182.176 95.2148 187.032C89.4671 190.592 83.9001 194.438 78.5429 198.556C55.5928 216.707 37.4635 240.231 25.764 267.051C23.9336 271.236 22.2956 275.494 20.8499 279.823C17.498 289.803 20.9082 300.914 29.5181 306.976L29.967 307.285C43.5377 249.656 81.4634 197.839 132.284 167.626L132.295 167.602ZM117.809 165.107C98.4617 165.137 64.6049 166.163 47.1461 172.511C32.5436 177.852 20.0513 187.748 11.5113 200.736C8.32265 205.604 5.71112 210.827 3.73497 216.301C27.9151 184.688 79.8428 170.54 117.798 165.107H117.809Z" fill="url(#paint1_linear_1282_898)"/>
<path d="M34.8286 134.655C25.6474 125.488 18.8737 114.197 15.1021 101.786C11.3305 89.3737 10.6777 76.2227 13.2076 63.499C15.7317 50.7753 21.3628 38.8712 29.588 28.8418C37.8132 18.813 48.3935 10.9685 60.3786 6.00364C72.3579 1.03938 85.3865 -0.892466 98.2926 0.380662C111.205 1.65379 123.598 6.09226 134.382 13.302C145.166 20.5117 154.01 30.2706 160.119 41.7142C166.228 53.1572 169.422 65.931 169.416 78.9031V242.737C169.416 253.471 172.599 263.965 178.563 272.891C184.526 281.817 193.002 288.773 202.918 292.882C212.839 296.99 223.752 298.065 234.28 295.971C244.807 293.878 254.478 288.709 262.068 281.118C269.658 273.528 274.828 263.858 276.927 253.329C279.02 242.801 277.947 231.888 273.837 221.97C269.734 212.052 262.773 203.575 253.849 197.61C244.924 191.645 234.431 188.461 223.699 188.46H175.566V182.316H223.699C235.649 182.314 247.331 185.857 257.265 192.495C267.204 199.134 274.951 208.57 279.521 219.611C284.097 230.651 285.298 242.8 282.966 254.521C280.634 266.242 274.881 277.008 266.428 285.459C257.982 293.91 247.215 299.665 235.492 301.997C223.775 304.328 211.621 303.132 200.58 298.559C189.539 293.986 180.107 286.242 173.468 276.306C166.828 266.369 163.284 254.687 163.284 242.737V78.9031C163.29 64.5122 159.034 50.4413 151.042 38.4713C143.05 26.502 131.695 17.1709 118.398 11.6587C105.107 6.14706 90.4755 4.70254 76.3627 7.50704C62.244 10.3121 49.2795 17.2409 39.1015 27.4166C28.9235 37.5923 21.9982 50.5579 19.1885 64.6725C16.3846 78.7876 17.8303 93.4176 23.339 106.712C28.8477 120.006 38.1805 131.367 50.1481 139.358C62.1158 147.348 76.1878 151.609 90.5804 151.601H132.552V157.739H90.5804C80.2217 157.748 69.9679 155.714 60.4019 151.753C50.836 147.792 42.1444 141.981 34.8286 134.655ZM150.996 120.898V242.731C150.99 257.119 155.245 271.186 163.237 283.152C171.224 295.117 182.585 304.446 195.876 309.955C209.167 315.464 223.793 316.908 237.905 314.103C252.018 311.299 264.983 304.371 275.155 294.198C285.327 284.024 292.258 271.062 295.062 256.95C297.872 242.839 296.426 228.212 290.917 214.92C285.409 201.629 276.082 190.269 264.12 182.279C252.152 174.289 238.086 170.027 223.699 170.033H175.566V176.177H223.699C236.862 176.176 249.733 180.079 260.681 187.392C271.622 194.705 280.156 205.1 285.193 217.261C290.235 229.424 291.553 242.807 288.982 255.718C286.417 268.63 280.081 280.49 270.771 289.799C261.462 299.108 249.605 305.448 236.693 308.017C223.781 310.586 210.397 309.268 198.231 304.23C186.071 299.193 175.677 290.662 168.361 279.716C161.045 268.77 157.146 255.901 157.146 242.737V78.9031C157.14 65.7387 153.234 52.8704 145.918 41.9258C138.603 30.9818 128.209 22.4523 116.043 17.4169C103.883 12.3815 90.4988 11.0658 77.5868 13.6372C64.6748 16.2079 52.818 22.5497 43.5085 31.8603C34.2049 41.1709 27.8684 53.0325 25.3035 65.9444C22.7386 78.857 24.056 92.2394 29.0984 104.401C34.1408 116.562 42.6749 126.956 53.6224 134.266C64.5699 141.577 77.4353 145.478 90.6038 145.474H132.575V139.318H90.6038C78.6536 139.32 66.9716 135.777 57.0325 129.138C47.0935 122.5 39.3522 113.063 34.7762 102.022C30.2001 90.9815 29.0051 78.8325 31.3368 67.1109C33.6686 55.3898 39.4221 44.6236 47.8747 36.1728C56.3214 27.7226 67.0881 21.9679 78.811 19.6367C90.5338 17.3056 102.682 18.5029 113.723 23.0766C124.764 27.6503 134.196 35.3958 140.835 45.3325C147.475 55.2697 151.019 66.9523 151.019 78.9031L150.996 120.898ZM190.635 321.031C202.236 325.941 214.786 328.212 227.372 327.676C239.957 327.14 252.269 323.814 263.409 317.937C274.554 312.06 284.254 303.779 291.803 293.695C299.352 283.609 304.57 271.972 307.065 259.624C309.565 247.277 309.291 234.528 306.26 222.3C303.229 210.072 297.516 198.671 289.536 188.921C281.561 179.172 271.512 171.319 260.127 165.929C248.736 160.538 236.296 157.747 223.699 157.757H175.566V163.895H223.699C239.299 163.888 254.554 168.509 267.53 177.174C280.506 185.838 290.626 198.156 296.601 212.57C302.57 226.985 304.138 242.848 301.095 258.151C298.053 273.455 290.538 287.513 279.509 298.546C268.474 309.579 254.414 317.092 239.112 320.135C223.81 323.177 207.948 321.612 193.532 315.638C179.116 309.663 166.799 299.548 158.137 286.572C149.468 273.595 144.852 258.34 144.857 242.737V78.9031C144.857 68.1695 141.669 57.6779 135.705 48.7537C129.742 39.8302 121.266 32.8746 111.35 28.7678C101.435 24.6611 90.5221 23.5867 79.9943 25.6806C69.4665 27.7751 59.8015 32.944 52.2117 40.5332C44.6219 48.123 39.4512 57.7927 37.3585 68.3199C35.26 78.8465 36.3384 89.7585 40.4423 99.6748C44.5519 109.592 51.5064 118.068 60.4311 124.032C69.3558 129.995 79.8428 133.179 90.5804 133.18H132.552V127.042H90.5804C81.0553 127.043 71.7517 124.221 63.8354 118.932C55.9133 113.643 49.7459 106.125 46.1025 97.329C42.4534 88.5331 41.5032 78.8535 43.3569 69.5155C45.2165 60.1769 49.7983 51.599 56.5312 44.8661C63.2641 38.1332 71.8391 33.5479 81.1777 31.6901C90.5163 29.8317 100.199 30.7848 108.995 34.4281C117.792 38.0714 125.312 44.2418 130.599 52.158C135.886 60.0749 138.713 69.382 138.713 78.9031V242.737C138.719 259.44 143.639 275.77 152.867 289.693C162.095 303.617 175.211 314.515 190.594 321.031H190.635Z" fill="white"/>
<path d="M296.071 81.6667C294.829 83.6411 293.273 85.3963 291.46 86.8606C283.526 93.2729 271.354 93.5644 263.17 87.4902C260.704 85.6161 258.635 83.2698 257.084 80.5889C255.534 77.9079 254.531 74.9449 254.14 71.8734C254.962 73.515 256.128 74.96 257.562 76.1113C255.079 70.3344 256.641 59.5968 263.421 57.1427C267.338 55.7419 271.658 55.9517 275.423 57.7256C276.105 57.9937 276.7 58.4508 277.137 59.043C277.347 59.3421 277.452 59.7046 277.429 60.0701C277.405 60.4356 277.259 60.7831 277.015 61.0542C276.56 61.4739 275.849 61.4739 275.266 61.6371C274.683 61.8003 274.048 62.3832 274.287 62.9545C276.338 63.3585 278.46 63.2057 280.431 62.5126C282.407 61.8201 284.156 60.6117 285.508 59.0139C285.969 58.431 286.4 57.7314 286.19 57.0377C285.951 56.21 284.983 55.8718 284.161 55.627C280.664 54.5369 278.116 52.2985 275.709 49.5645C275.033 48.8207 274.164 48.2815 273.202 48.0092C272.235 47.737 271.214 47.7428 270.253 48.0256C269.087 48.3811 267.88 49.1215 266.825 48.5618C267.221 47.217 268.131 46.0832 269.361 45.4082C271.314 44.3473 273.086 44.7553 274.805 45.9212C278.851 48.661 283.316 51.1093 287.449 53.7908C287.945 54.1161 288.51 54.3189 289.099 54.383C289.688 54.4466 290.282 54.3696 290.836 54.158C291.314 53.9604 291.74 53.648 292.072 53.2487C293.191 52.0245 293.821 50.1708 293.086 48.6784C292.579 47.8064 291.88 47.0655 291.034 46.5158C285.321 42.11 280.285 36.8892 276.094 31.0214C274.741 28.6179 273.756 26.0239 273.179 23.3266C272.689 21.0847 271.459 19.0747 269.681 17.6255C266.458 14.954 263.018 12.5499 259.404 10.438C254.578 7.16188 248.911 4.92923 243.245 3.39612C228.532 -0.596982 212.717 -0.830156 198.068 3.39612C183.419 7.62239 169.801 16.0691 160.55 28.1941C167.971 30.7847 175.928 31.4271 183.669 30.0595C190.047 20.9424 199.887 15.0723 210.584 11.9886C212.216 11.5164 213.865 11.1258 215.527 10.8227H215.433C208.508 13.1544 201.735 16.2556 196.144 20.9599C191.236 25.0871 187.4 30.2869 184.182 35.8073C182.34 38.9201 180.061 42.4527 178.545 46.1252C176.703 49.7219 175.048 53.4177 173.369 57.0902C182.055 57.1485 190.472 53.8491 197.951 49.4305C205.43 45.0118 212.169 39.4506 219.252 34.414C221.426 32.8693 223.653 31.3711 225.932 29.9721C228.485 28.6663 230.852 27.3722 232.927 26.1539C220.791 33.3473 218.715 40.1443 195.375 54.4728C189.481 62.7038 181.536 77.7144 180.51 87.7817C183.938 81.0255 194.594 68.131 200.872 63.8814C186.339 77.8135 179.886 93.1213 176.826 100.565C175.782 103.101 174.914 105.072 174.564 107.747L175.963 107.304C175.275 108.388 174.914 110.679 175.38 113.687C177.805 110.016 180.871 106.813 184.439 104.232C175.112 113.67 174.943 127.042 176.744 139.686C180.277 137.289 183.903 135.04 187.622 132.942C193.066 129.875 198.826 127.654 204.649 125.457C196.407 128.775 188.607 133.104 181.431 138.345C179.053 140.094 176.505 142.385 177.228 145.539C177.56 146.838 178.353 147.97 179.466 148.722C181.868 150.412 184.783 150.47 187.593 150.552L227.658 151.38C234.373 151.52 241.135 151.66 247.746 150.488C253.278 149.509 258.746 147.544 263.228 144.21C263.432 144.056 263.584 143.843 263.666 143.599C263.741 143.356 263.747 143.093 263.671 142.849C263.596 142.603 263.45 142.387 263.246 142.229C263.048 142.071 262.803 141.979 262.546 141.965C252.053 141.482 241.835 140.217 232.735 134.778C225.198 138.876 216.57 140.53 208.054 139.511C214.081 138.772 220.039 137.523 225.856 135.78C228.689 134.929 231.686 134.212 233.096 131.618C235.428 127.38 234.962 121.965 232.63 117.721C230.298 113.477 226.34 110.324 222.021 108.149C217.824 106.039 213.277 104.768 208.724 103.538L208.776 103.457C216.798 103.951 224.387 107.272 230.193 112.83C233.003 111.103 235.335 108.697 236.973 105.835C240.511 113.932 246.865 120.472 254.857 124.242C262.849 128.013 271.937 128.76 280.442 126.343C280.664 126.277 280.862 126.141 281.002 125.955C281.142 125.768 281.218 125.541 281.218 125.308C281.218 125.075 281.142 124.848 281.002 124.662C280.862 124.475 280.664 124.339 280.442 124.273C277.493 123.435 274.782 121.907 272.538 119.816C270.293 117.725 268.58 115.131 267.536 112.247C251.418 110.4 236.273 99.4753 230.042 84.4998C234.21 91.5649 239.841 97.8431 246.755 102.25C253.668 106.657 261.911 109.14 270.072 108.662C278.233 108.184 286.347 104.693 291.862 98.6184C295.902 94.1864 298.379 88.5506 298.91 82.5761C298.916 82.2397 298.816 81.9086 298.624 81.634C298.432 81.3589 298.152 81.1543 297.831 81.0517C297.511 80.9491 297.167 80.9538 296.846 81.0645C296.531 81.1753 296.257 81.3869 296.071 81.6667ZM262.202 26.7951C263.479 26.9117 264.767 26.9875 266.032 27.1973C268.306 27.7517 270.422 28.8272 272.211 30.3393C272.753 30.8232 272.981 32.4612 273.074 33.6154C273.074 33.7186 273.045 33.82 272.992 33.9092C272.94 33.9978 272.864 34.0713 272.777 34.122C272.683 34.1721 272.584 34.1978 272.479 34.196C272.375 34.1937 272.275 34.1646 272.188 34.1109L269.273 31.9366C267.874 30.9106 266.429 29.9389 264.942 29.0219C264.173 28.5556 263.112 27.7511 262.08 27.1973C262.045 27.1688 262.016 27.1303 262.004 27.0871C261.992 27.0446 261.992 26.9985 262.004 26.9554C262.016 26.9123 262.045 26.8738 262.08 26.8452C262.115 26.8167 262.156 26.7992 262.202 26.7951Z" fill="url(#paint2_linear_1282_898)"/>
<path d="M450.415 271.806C445.917 271.806 441.977 270.865 438.595 268.982C435.214 267.1 432.582 264.468 430.7 261.087C428.818 257.674 427.877 253.702 427.877 249.172V214.384H436.729V249.794C436.729 254.26 437.973 257.865 440.462 260.608C442.982 263.352 446.284 264.724 450.367 264.724C454.45 264.724 457.736 263.352 460.224 260.608C462.713 257.865 463.957 254.26 463.957 249.794V230.893C463.957 227.83 463.271 225.469 461.899 223.811C460.559 222.12 458.645 221.274 456.157 221.274C455.072 221.274 453.94 221.45 452.76 221.801C451.579 222.12 450.415 222.55 449.266 223.093L447.879 217.159C449.474 216.138 451.228 215.341 453.142 214.767C455.056 214.16 456.923 213.857 458.741 213.857C463.111 213.857 466.557 215.325 469.077 218.26C471.597 221.163 472.857 225.134 472.857 230.175V249.172C472.857 253.702 471.916 257.674 470.034 261.087C468.184 264.468 465.568 267.1 462.186 268.982C458.837 270.865 454.913 271.806 450.415 271.806ZM491.711 271.71C490.052 271.71 488.489 271.614 487.021 271.423C485.554 271.231 484.07 270.976 482.571 270.657L482.81 263.719C484.884 264.133 487.213 264.341 489.797 264.341C492.381 264.341 494.327 263.607 495.635 262.14C496.974 260.64 497.644 258.312 497.644 255.153V221.514H486.591V214.384H506.545V255.871C506.545 261.071 505.253 265.011 502.669 267.69C500.117 270.37 496.464 271.71 491.711 271.71ZM547.123 270.753V231.419C547.123 228.356 546.214 225.948 544.395 224.193C542.609 222.407 540.152 221.514 537.026 221.514H518.077V214.384H537.313C543.151 214.384 547.713 215.947 550.999 219.073C554.316 222.168 555.975 226.506 555.975 232.089V270.753H547.123ZM594.544 271.806C590.046 271.806 586.106 270.865 582.724 268.982C579.343 267.1 576.711 264.468 574.829 261.087C572.947 257.674 572.006 253.702 572.006 249.172V214.384H580.858V249.794C580.858 254.26 582.102 257.865 584.591 260.608C587.111 263.352 590.413 264.724 594.496 264.724C598.579 264.724 601.865 263.352 604.353 260.608C606.842 257.865 608.086 254.26 608.086 249.794V230.893C608.086 227.83 607.4 225.469 606.028 223.811C604.688 222.12 602.774 221.274 600.286 221.274C599.201 221.274 598.069 221.45 596.888 221.801C595.708 222.12 594.544 222.55 593.395 223.093L592.008 217.159C593.603 216.138 595.357 215.341 597.271 214.767C599.185 214.16 601.052 213.857 602.87 213.857C607.24 213.857 610.686 215.325 613.206 218.26C615.726 221.163 616.986 225.134 616.986 230.175V249.172C616.986 253.702 616.045 257.674 614.163 261.087C612.313 264.468 609.697 267.1 606.315 268.982C602.966 270.865 599.042 271.806 594.544 271.806ZM635.84 271.71C634.181 271.71 632.618 271.614 631.15 271.423C629.683 271.231 628.199 270.976 626.7 270.657L626.939 263.719C629.013 264.133 631.342 264.341 633.926 264.341C636.51 264.341 638.455 263.607 639.763 262.14C641.103 260.64 641.773 258.312 641.773 255.153V221.514H630.719V214.384H650.674V255.871C650.674 261.071 649.382 265.011 646.798 267.69C644.246 270.37 640.593 271.71 635.84 271.71ZM672.302 245.822V221.514H661.967V214.384H681.203V245.822H672.302ZM737.046 270.753L696.18 214.384H706.134L746.951 270.753H737.046ZM698.19 270.753V250.32C698.19 245.057 699.163 240.814 701.109 237.592C703.055 234.37 706.086 232.009 710.201 230.51L713.694 235.104C709.1 237.177 706.803 241.181 706.803 247.114V270.753H698.19ZM747.19 214.384L727.762 248.406L721.877 241.563L737.189 214.384H747.19ZM754.703 270.753V263.575H785.328L794.18 263.24L801.023 263.958V270.753H754.703ZM785.328 268.743V235.391C785.328 230.51 784.227 226.985 782.026 224.815C779.857 222.614 776.316 221.514 771.403 221.514H757.765V214.384H771.882C779.219 214.384 784.77 216.17 788.534 219.743C792.298 223.284 794.18 228.58 794.18 235.63V268.743H785.328ZM836.385 270.753V214.384H881.366V270.753H836.385ZM845.238 263.575H872.513V221.514H845.238V263.575ZM903.043 245.822V221.514H892.707V214.384H911.943V245.822H903.043ZM947.258 270.753V263.767C951.979 263.607 955.775 262.124 958.646 259.316C961.549 256.509 963.001 252.633 963.001 247.688V221.514H928.213V214.384H971.901V247.497C971.901 252.25 970.88 256.35 968.839 259.795C966.797 263.24 963.926 265.904 960.225 267.786C956.525 269.636 952.202 270.625 947.258 270.753ZM929.313 290.659V249.603C929.313 246.381 929.584 243.908 930.127 242.186C930.669 240.463 931.227 238.995 931.802 237.783H939.075C938.66 239.219 938.357 240.814 938.166 242.568C938.006 244.323 937.927 246.492 937.927 249.076V290.659H929.313ZM1012.57 271.806C1007.89 271.806 1003.75 270.737 1000.18 268.6C996.608 266.43 993.817 263.4 991.807 259.508C989.83 255.616 988.809 251.086 988.745 245.918V240.176C988.745 237.688 989.08 235.247 989.75 232.854C990.452 230.43 991.409 228.261 992.621 226.347C993.833 224.401 995.205 222.917 996.736 221.896C996.832 221.833 996.927 221.769 997.023 221.705C997.151 221.609 997.278 221.546 997.406 221.514L997.358 221.37C996.146 221.498 994.599 221.801 992.717 222.279C990.866 222.758 989.048 223.236 987.261 223.715L985.539 217.016C988.027 216.282 990.755 215.644 993.721 215.102C996.688 214.527 999.671 214.097 1002.67 213.81C1005.7 213.491 1008.52 213.331 1011.14 213.331C1016.4 213.331 1020.92 214.368 1024.68 216.441C1028.45 218.483 1031.33 221.434 1033.34 225.294C1035.38 229.122 1036.41 233.748 1036.41 239.171V245.918C1036.41 251.086 1035.42 255.616 1033.44 259.508C1031.46 263.4 1028.68 266.43 1025.11 268.6C1021.54 270.737 1017.36 271.806 1012.57 271.806ZM1012.57 264.293C1015.57 264.293 1018.19 263.527 1020.42 261.996C1022.69 260.465 1024.44 258.327 1025.69 255.584C1026.96 252.84 1027.6 249.634 1027.6 245.966V239.267C1027.6 235.438 1026.96 232.153 1025.69 229.409C1024.44 226.634 1022.66 224.512 1020.33 223.045C1018 221.546 1015.24 220.796 1012.05 220.796C1009.18 220.796 1006.67 221.562 1004.54 223.093C1002.43 224.592 1000.77 226.761 999.559 229.601C998.379 232.408 997.741 235.773 997.645 239.697V245.966C997.645 249.634 998.267 252.84 999.511 255.584C1000.76 258.327 1002.49 260.465 1004.73 261.996C1006.99 263.527 1009.61 264.293 1012.57 264.293ZM1066.07 271.949C1063.14 271.949 1059.98 271.63 1056.6 270.992C1053.25 270.386 1049.72 269.381 1046.02 267.978L1048.18 261.374C1051.37 262.618 1054.37 263.543 1057.17 264.149C1059.98 264.756 1062.58 265.075 1064.97 265.106C1070.17 265.106 1074.35 263.687 1077.51 260.848C1080.7 258.008 1082.29 253.893 1082.29 248.502V214.384H1091.15V248.167C1091.15 253.335 1090.08 257.689 1087.94 261.23C1085.84 264.74 1082.9 267.403 1079.14 269.222C1075.37 271.04 1071.02 271.949 1066.07 271.949ZM1049.09 214.384H1057.99L1067.13 255.967C1067.64 258.359 1068.21 260.385 1068.85 262.044C1069.49 263.703 1070.36 265.234 1071.48 266.638L1064.49 266.494C1063.15 265.122 1061.94 263.575 1060.86 261.853C1059.77 260.098 1058.96 257.977 1058.42 255.488L1049.09 214.384ZM1127.37 271.136C1127.02 271.136 1126.64 271.12 1126.22 271.088C1125.84 271.088 1125.47 271.056 1125.12 270.992V262.81C1125.6 262.873 1126.08 262.921 1126.56 262.953C1127.04 262.985 1127.48 263.001 1127.9 263.001C1131.09 262.905 1133.83 262.219 1136.13 260.943C1138.42 259.635 1140.27 257.913 1141.68 255.775C1143.11 253.606 1144.09 251.198 1144.6 248.55V221.514H1131.87V214.384H1153.35V243.478C1153.35 246.444 1153.66 249.315 1154.26 252.091L1158.19 270.753H1149.81L1146.51 254.962H1146.18C1145.79 257.801 1144.73 260.449 1142.97 262.905C1141.25 265.362 1139.03 267.355 1136.32 268.887C1133.64 270.386 1130.66 271.136 1127.37 271.136ZM1173.4 270.753V221.514H1166.85V214.384H1182.3V270.753H1173.4ZM1222.64 214.384C1230.11 214.384 1235.67 216.17 1239.34 219.743C1243.04 223.284 1244.89 228.691 1244.89 235.965V270.753H1236.04L1235.99 235.438C1235.99 230.558 1234.94 227.017 1232.84 224.815C1230.76 222.614 1227.4 221.514 1222.74 221.514H1214.75C1213.7 223.236 1212.85 225.453 1212.21 228.165C1211.61 230.845 1211.3 233.604 1211.3 236.443V255.44C1211.3 260.64 1210.06 264.58 1207.57 267.26C1205.11 269.908 1201.56 271.231 1196.9 271.231C1195.94 271.231 1195.02 271.184 1194.12 271.088C1193.26 271.024 1192.35 270.928 1191.4 270.801V263.671C1191.97 263.735 1192.53 263.783 1193.07 263.814C1193.65 263.846 1194.19 263.862 1194.7 263.862C1197.51 263.862 1199.53 263.145 1200.78 261.709C1202.02 260.273 1202.64 258.008 1202.64 254.914V237.113C1202.64 234.274 1203.01 231.403 1203.74 228.5C1204.51 225.597 1205.58 223.268 1206.95 221.514H1196.37V214.384H1222.64ZM1265.18 245.822V221.514H1254.85V214.384H1274.08V245.822H1265.18ZM1289.97 270.753L1294.28 234.912C1294.63 232.264 1295.38 229.792 1296.53 227.495C1297.67 225.198 1299.03 223.428 1300.59 222.184C1300.75 222.056 1300.91 221.944 1301.07 221.849C1301.26 221.721 1301.42 221.609 1301.55 221.514L1301.45 221.37C1300.05 221.593 1298.26 221.992 1296.1 222.566C1293.96 223.109 1291.98 223.699 1290.16 224.337L1288.1 217.638C1290.56 216.776 1293.22 216.027 1296.1 215.389C1299 214.751 1301.93 214.256 1304.9 213.905C1307.87 213.522 1310.64 213.331 1313.23 213.331C1320.82 213.331 1326.61 215.357 1330.6 219.408C1334.62 223.428 1336.64 229.345 1336.67 237.161V270.753H1313.47V263.623H1327.82V236.156C1327.82 231.116 1326.67 227.304 1324.38 224.72C1322.11 222.104 1318.84 220.796 1314.57 220.796C1311.47 220.796 1308.89 221.992 1306.81 224.385C1304.74 226.745 1303.46 229.967 1302.99 234.051L1298.73 270.753H1289.97Z" fill="white"/>
<defs>
<linearGradient id="paint0_linear_1282_898" x1="412.656" y1="89.5715" x2="667.211" y2="89.5715" gradientUnits="userSpaceOnUse">
<stop stop-color="#E68E21"/>
<stop offset="1" stop-color="#E96F1E"/>
</linearGradient>
<linearGradient id="paint1_linear_1282_898" x1="-0.0424302" y1="245.191" x2="140.602" y2="245.191" gradientUnits="userSpaceOnUse">
<stop stop-color="#E68E21"/>
<stop offset="1" stop-color="#E96F1E"/>
</linearGradient>
<linearGradient id="paint2_linear_1282_898" x1="160.579" y1="75.9306" x2="298.939" y2="75.9306" gradientUnits="userSpaceOnUse">
<stop stop-color="#E68E21"/>
<stop offset="1" stop-color="#E96F1E"/>
</linearGradient>
</defs>
</svg>
